<svg xmlns="http://www.w3.org/2000/svg" xmlns:xlink="http://www.w3.org/1999/xlink" viewBox="-6104 -10579 909.8 1429.4"><defs><style>.cls-1{fill:url(#linear-gradient)}.cls-2{fill:url(#linear-gradient-2)}.cls-3{fill:url(#linear-gradient-3)}.cls-4{fill:url(#linear-gradient-4)}.cls-5{fill:url(#linear-gradient-5)}.cls-6{fill:url(#linear-gradient-6)}.cls-7{fill:url(#linear-gradient-7)}.cls-8{fill:url(#linear-gradient-8)}.cls-9{fill:url(#linear-gradient-9)}.cls-10{fill:url(#linear-gradient-10)}.cls-11{fill:url(#linear-gradient-11)}.cls-12{fill:url(#linear-gradient-12)}.cls-13{fill:url(#linear-gradient-13)}.cls-14{fill:url(#linear-gradient-14)}.cls-15{fill:url(#linear-gradient-15)}.cls-16{fill:url(#linear-gradient-16)}.cls-17{fill:url(#linear-gradient-17)}.cls-18{fill:url(#linear-gradient-18)}.cls-19{fill:url(#linear-gradient-19)}.cls-20{fill:url(#linear-gradient-20)}.cls-21{fill:url(#linear-gradient-21)}.cls-22{fill:url(#linear-gradient-22)}.cls-23{fill:url(#linear-gradient-23)}.cls-24{fill:url(#linear-gradient-24)}.cls-25{fill:url(#linear-gradient-25)}.cls-26{fill:url(#linear-gradient-26)}.cls-27{fill:url(#linear-gradient-27)}.cls-28{fill:url(#linear-gradient-28)}.cls-29{fill:url(#linear-gradient-29)}.cls-30{fill:url(#linear-gradient-30)}.cls-31{fill:url(#linear-gradient-31)}.cls-32{fill:url(#linear-gradient-32)}.cls-33{fill:url(#linear-gradient-34)}.cls-34{fill:url(#linear-gradient-35)}.cls-35{fill:url(#linear-gradient-36)}.cls-36{fill:url(#linear-gradient-37)}.cls-37{fill:url(#linear-gradient-38)}.cls-38{fill:url(#linear-gradient-39)}.cls-39{fill:url(#linear-gradient-40)}.cls-40{fill:url(#linear-gradient-41)}.cls-41{fill:url(#linear-gradient-42)}.cls-42{fill:url(#linear-gradient-43)}.cls-43{fill:url(#linear-gradient-44)}.cls-44{fill:url(#linear-gradient-45)}.cls-45{fill:url(#linear-gradient-46)}.cls-46{fill:url(#linear-gradient-47)}.cls-47{fill:url(#linear-gradient-48)}.cls-48{fill:url(#linear-gradient-49)}.cls-49{fill:url(#linear-gradient-50)}.cls-50{fill:url(#linear-gradient-51)}.cls-51{fill:url(#linear-gradient-52)}.cls-52{fill:url(#linear-gradient-53)}.cls-53{fill:url(#linear-gradient-54)}.cls-54{fill:url(#linear-gradient-55)}.cls-55{fill:url(#linear-gradient-58)}.cls-56{fill:url(#linear-gradient-59)}.cls-57{fill:url(#linear-gradient-60)}.cls-58{fill:url(#linear-gradient-66)}.cls-59{fill:url(#linear-gradient-67)}.cls-60{fill:url(#linear-gradient-68)}.cls-61{fill:url(#linear-gradient-69)}.cls-62{fill:url(#linear-gradient-70)}.cls-63{fill:url(#linear-gradient-79)}.cls-64{fill:url(#linear-gradient-81)}.cls-65{fill:url(#linear-gradient-82)}.cls-66{fill:url(#linear-gradient-83)}.cls-67{fill:url(#linear-gradient-84)}.cls-68{fill:url(#linear-gradient-85)}.cls-69{fill:url(#linear-gradient-94)}.cls-70{fill:url(#linear-gradient-95)}.cls-71{fill:url(#linear-gradient-96)}.cls-72{fill:url(#linear-gradient-97)}.cls-73{fill:url(#linear-gradient-98)}.cls-74{fill:url(#linear-gradient-99)}.cls-75{fill:url(#linear-gradient-100)}.cls-76{fill:url(#linear-gradient-101)}.cls-77{fill:url(#linear-gradient-103)}.cls-78{fill:url(#linear-gradient-105)}.cls-79{fill:url(#linear-gradient-111)}.cls-80{fill:url(#linear-gradient-112)}.cls-81{fill:url(#linear-gradient-113)}.cls-82{fill:url(#linear-gradient-114)}.cls-83{fill:url(#linear-gradient-115)}.cls-84{fill:url(#linear-gradient-117)}.cls-85{fill:url(#linear-gradient-119)}.cls-86{fill:url(#linear-gradient-126)}.cls-87{fill:url(#linear-gradient-128)}.cls-88{fill:url(#linear-gradient-129)}.cls-89{fill:url(#linear-gradient-130)}.cls-90{fill:url(#linear-gradient-156)}.cls-91{fill:url(#linear-gradient-157)}.cls-92{fill:url(#linear-gradient-158)}.cls-93{fill:url(#linear-gradient-159)}.cls-94{fill:url(#linear-gradient-160)}.cls-95{fill:url(#linear-gradient-171)}.cls-96{fill:url(#linear-gradient-174)}.cls-97{fill:url(#linear-gradient-175)}</style><linearGradient id="linear-gradient" x1=".5" y1=".571" x2=".5" y2="-1.318" gradientUnits="objectBoundingBox"><stop offset="0" stop-color="#9b287b"/><stop offset="1" stop-color="#4bbfaf"/></linearGradient><linearGradient id="linear-gradient-2" x1=".5" y1="1.311" x2=".5" y2="-.58" xlink:href="#linear-gradient"/><linearGradient id="linear-gradient-3" x1=".5" y1="1.129" x2=".5" y2="-.762" xlink:href="#linear-gradient"/><linearGradient id="linear-gradient-4" x1=".5" y1=".943" x2=".5" y2="-.948" xlink:href="#linear-gradient"/><linearGradient id="linear-gradient-5" x1=".5" y1=".76" x2=".5" y2="-1.131" xlink:href="#linear-gradient"/><linearGradient id="linear-gradient-6" x1=".502" y1=".01" x2=".502" y2="1.14" xlink:href="#linear-gradient"/><linearGradient id="linear-gradient-7" x1=".5" y1=".399" x2=".5" y2="1.529" xlink:href="#linear-gradient"/><linearGradient id="linear-gradient-8" x1=".5" y1=".304" x2=".5" y2="1.433" xlink:href="#linear-gradient"/><linearGradient id="linear-gradient-9" x1=".502" y1=".206" x2=".502" y2="1.335" xlink:href="#linear-gradient"/><linearGradient id="linear-gradient-10" x1=".501" y1=".11" x2=".501" y2="1.239" xlink:href="#linear-gradient"/><linearGradient id="linear-gradient-11" x1=".169" y1=".641" x2="1.317" y2=".153" xlink:href="#linear-gradient"/><linearGradient id="linear-gradient-12" x1=".449" y1=".522" x2="1.596" y2=".035" xlink:href="#linear-gradient"/><linearGradient id="linear-gradient-13" x1=".38" y1=".551" x2="1.527" y2=".063" xlink:href="#linear-gradient"/><linearGradient id="linear-gradient-14" x1=".31" y1=".581" x2="1.457" y2=".093" xlink:href="#linear-gradient"/><linearGradient id="linear-gradient-15" x1=".241" y1=".61" x2="1.388" y2=".123" xlink:href="#linear-gradient"/><linearGradient id="linear-gradient-16" y1=".5" x2="1" y2=".5" xlink:href="#linear-gradient"/><linearGradient id="linear-gradient-17" y1=".5" x2="1" y2=".5" xlink:href="#linear-gradient"/><linearGradient id="linear-gradient-18" y1=".5" x2="1" y2=".5" xlink:href="#linear-gradient"/><linearGradient id="linear-gradient-19" y1=".5" x2="1" y2=".5" xlink:href="#linear-gradient"/><linearGradient id="linear-gradient-20" y1=".5" x2="1" y2=".5" xlink:href="#linear-gradient"/><linearGradient id="linear-gradient-21" x1=".502" y1="-.065" x2=".502" y2="5.411" gradientUnits="objectBoundingBox"><stop offset="0" stop-color="#87176c"/><stop offset="1" stop-color="#4bbfaf"/></linearGradient><linearGradient id="linear-gradient-22" x1=".5" y1=".324" x2=".5" y2="5.8" xlink:href="#linear-gradient-21"/><linearGradient id="linear-gradient-23" x1=".5" y1=".229" x2=".5" y2="5.701" xlink:href="#linear-gradient-21"/><linearGradient id="linear-gradient-24" x1=".502" y1=".131" x2=".502" y2="5.603" xlink:href="#linear-gradient-21"/><linearGradient id="linear-gradient-25" x1=".501" y1=".034" x2=".501" y2="5.51" xlink:href="#linear-gradient-21"/><linearGradient id="linear-gradient-26" y1=".5" x2="1" y2=".5" xlink:href="#linear-gradient"/><linearGradient id="linear-gradient-27" y1=".5" x2="1" y2=".5" xlink:href="#linear-gradient"/><linearGradient id="linear-gradient-28" y1=".5" x2="1" y2=".5" xlink:href="#linear-gradient"/><linearGradient id="linear-gradient-29" y1=".5" x2="1" y2=".5" xlink:href="#linear-gradient"/><linearGradient id="linear-gradient-30" y1=".5" x2="1" y2=".5" xlink:href="#linear-gradient"/><linearGradient id="linear-gradient-31" y1=".5" x2="1" y2=".5" xlink:href="#linear-gradient"/><linearGradient id="linear-gradient-32" y1=".5" x2="1" y2=".5" xlink:href="#linear-gradient"/><linearGradient id="linear-gradient-34" y1=".5" x2="1" y2=".5" xlink:href="#linear-gradient"/><linearGradient id="linear-gradient-35" y1=".5" x2="1" y2=".5" xlink:href="#linear-gradient"/><linearGradient id="linear-gradient-36" x1=".499" y1="-2.973" x2=".499" y2="2.499" xlink:href="#linear-gradient-21"/><linearGradient id="linear-gradient-37" x1=".5" y1="-2.585" x2=".5" y2="2.888" xlink:href="#linear-gradient-21"/><linearGradient id="linear-gradient-38" x1=".499" y1="-2.682" x2=".499" y2="2.794" xlink:href="#linear-gradient-21"/><linearGradient id="linear-gradient-39" x1=".499" y1="-2.78" x2=".499" y2="2.696" xlink:href="#linear-gradient-21"/><linearGradient id="linear-gradient-40" x1=".498" y1="-2.876" x2=".498" y2="2.599" xlink:href="#linear-gradient-21"/><linearGradient id="linear-gradient-41" y1=".5" x2="1" y2=".5" xlink:href="#linear-gradient"/><linearGradient id="linear-gradient-42" y1=".5" x2="1" y2=".5" xlink:href="#linear-gradient"/><linearGradient id="linear-gradient-43" y1=".5" x2="1" y2=".5" xlink:href="#linear-gradient"/><linearGradient id="linear-gradient-44" y1=".5" x2="1" y2=".5" xlink:href="#linear-gradient"/><linearGradient id="linear-gradient-45" y1=".5" x2="1" y2=".5" xlink:href="#linear-gradient"/><linearGradient id="linear-gradient-46" y1=".5" x2="1" y2=".5" xlink:href="#linear-gradient"/><linearGradient id="linear-gradient-47" y1=".5" x2="1" y2=".5" xlink:href="#linear-gradient"/><linearGradient id="linear-gradient-48" y1=".5" x2="1" y2=".5" xlink:href="#linear-gradient"/><linearGradient id="linear-gradient-49" y1=".5" x2="1" y2=".5" xlink:href="#linear-gradient"/><linearGradient id="linear-gradient-50" y1=".5" x2="1" y2=".5" xlink:href="#linear-gradient"/><linearGradient id="linear-gradient-51" x1=".001" y1=".5" x2="1.002" y2=".5" xlink:href="#linear-gradient"/><linearGradient id="linear-gradient-52" y1=".5" x2="1.001" y2=".5" xlink:href="#linear-gradient"/><linearGradient id="linear-gradient-53" x1=".002" y1=".5" x2=".998" y2=".5" xlink:href="#linear-gradient"/><linearGradient id="linear-gradient-54" x1=".001" y1=".5" x2="1.002" y2=".5" xlink:href="#linear-gradient"/><linearGradient id="linear-gradient-55" x1=".001" y1=".5" x2="1.001" y2=".5" xlink:href="#linear-gradient"/><linearGradient id="linear-gradient-58" y1=".5" x2="1" y2=".5" xlink:href="#linear-gradient"/><linearGradient id="linear-gradient-59" y1=".5" x2="1" y2=".5" xlink:href="#linear-gradient"/><linearGradient id="linear-gradient-60" y1=".5" x2="1" y2=".5" xlink:href="#linear-gradient"/><linearGradient id="linear-gradient-66" x1=".502" y1="-1.521" x2=".502" y2="3.952" xlink:href="#linear-gradient-21"/><linearGradient id="linear-gradient-67" x1=".5" y1="-1.132" x2=".5" y2="4.34" xlink:href="#linear-gradient-21"/><linearGradient id="linear-gradient-68" x1=".5" y1="-1.228" x2=".5" y2="4.248" xlink:href="#linear-gradient-21"/><linearGradient id="linear-gradient-69" x1=".502" y1="-1.326" x2=".502" y2="4.149" xlink:href="#linear-gradient-21"/><linearGradient id="linear-gradient-70" x1=".501" y1="-1.423" x2=".501" y2="4.053" xlink:href="#linear-gradient-21"/><linearGradient id="linear-gradient-79" y1=".5" x2="1" y2=".5" xlink:href="#linear-gradient"/><linearGradient id="linear-gradient-81" x1=".502" y1="-2.973" x2=".502" y2="2.499" xlink:href="#linear-gradient-21"/><linearGradient id="linear-gradient-82" x1=".5" y1="-2.585" x2=".5" y2="2.888" xlink:href="#linear-gradient-21"/><linearGradient id="linear-gradient-83" x1=".5" y1="-2.682" x2=".5" y2="2.794" xlink:href="#linear-gradient-21"/><linearGradient id="linear-gradient-84" x1=".502" y1="-2.78" x2=".502" y2="2.696" xlink:href="#linear-gradient-21"/><linearGradient id="linear-gradient-85" x1=".501" y1="-2.876" x2=".501" y2="2.599" xlink:href="#linear-gradient-21"/><linearGradient id="linear-gradient-94" y1=".5" x2="1" y2=".5" xlink:href="#linear-gradient"/><linearGradient id="linear-gradient-95" y1=".5" x2="1" y2=".5" xlink:href="#linear-gradient"/><linearGradient id="linear-gradient-96" x1=".501" y1="-4.439" x2=".501" y2="1.033" xlink:href="#linear-gradient-21"/><linearGradient id="linear-gradient-97" x1=".5" y1="-4.05" x2=".5" y2="1.422" xlink:href="#linear-gradient-21"/><linearGradient id="linear-gradient-98" x1=".502" y1="-4.149" x2=".502" y2="1.327" xlink:href="#linear-gradient-21"/><linearGradient id="linear-gradient-99" x1=".502" y1="-4.247" x2=".502" y2="1.229" xlink:href="#linear-gradient-21"/><linearGradient id="linear-gradient-100" x1=".501" y1="-4.343" x2=".501" y2="1.133" xlink:href="#linear-gradient-21"/><linearGradient id="linear-gradient-101" y1=".5" x2="1" y2=".5" xlink:href="#linear-gradient"/><linearGradient id="linear-gradient-103" y1=".5" x2="1" y2=".5" xlink:href="#linear-gradient"/><linearGradient id="linear-gradient-105" y1=".5" x2="1" y2=".5" xlink:href="#linear-gradient"/><linearGradient id="linear-gradient-111" x1=".501" y1="-5.892" x2=".501" y2="-.42" xlink:href="#linear-gradient-21"/><linearGradient id="linear-gradient-112" x1=".5" y1="-5.503" x2=".5" y2="-.031" xlink:href="#linear-gradient-21"/><linearGradient id="linear-gradient-113" x1=".502" y1="-5.602" x2=".502" y2="-.127" xlink:href="#linear-gradient-21"/><linearGradient id="linear-gradient-114" x1=".502" y1="-5.701" x2=".502" y2="-.225" xlink:href="#linear-gradient-21"/><linearGradient id="linear-gradient-115" x1=".501" y1="-5.797" x2=".501" y2="-.321" xlink:href="#linear-gradient-21"/><linearGradient id="linear-gradient-117" y1=".5" x2="1" y2=".5" xlink:href="#linear-gradient"/><linearGradient id="linear-gradient-119" y1=".5" x2="1" y2=".5" xlink:href="#linear-gradient"/><linearGradient id="linear-gradient-126" x1=".499" y1="-5.892" x2=".499" y2="-.42" xlink:href="#linear-gradient-21"/><linearGradient id="linear-gradient-128" x1=".499" y1="-5.602" x2=".499" y2="-.127" xlink:href="#linear-gradient-21"/><linearGradient id="linear-gradient-129" x1=".499" y1="-5.701" x2=".499" y2="-.225" xlink:href="#linear-gradient-21"/><linearGradient id="linear-gradient-130" x1=".498" y1="-5.797" x2=".498" y2="-.321" xlink:href="#linear-gradient-21"/><linearGradient id="linear-gradient-156" x1=".502" y1="-4.439" x2=".502" y2="1.033" xlink:href="#linear-gradient-21"/><linearGradient id="linear-gradient-157" x1=".5" y1="-4.05" x2=".5" y2="1.422" xlink:href="#linear-gradient-21"/><linearGradient id="linear-gradient-158" x1=".5" y1="-4.149" x2=".5" y2="1.327" xlink:href="#linear-gradient-21"/><linearGradient id="linear-gradient-159" x1=".502" y1="-4.247" x2=".502" y2="1.229" xlink:href="#linear-gradient-21"/><linearGradient id="linear-gradient-160" x1=".501" y1="-4.343" x2=".501" y2="1.133" xlink:href="#linear-gradient-21"/><linearGradient id="linear-gradient-171" x1=".001" y1=".5" x2="1.002" y2=".5" xlink:href="#linear-gradient"/><linearGradient id="linear-gradient-174" x1=".001" y1=".5" x2="1.002" y2=".5" xlink:href="#linear-gradient"/><linearGradient id="linear-gradient-175" x1=".001" y1=".5" x2="1.001" y2=".5" xlink:href="#linear-gradient"/></defs><g id="Group_3908" data-name="Group 3908" transform="translate(-6104 -10579)"><g id="Group_3872" data-name="Group 3872"><path id="Path_4172" data-name="Path 4172" class="cls-1" d="M21.2 61L2.5 72l126.1 71.6 18.7-11z"/><path id="Path_4173" data-name="Path 4173" class="cls-2" d="M233 82.5l18.6-10.9L125.5 0l-18.6 10.9z"/><path id="Path_4174" data-name="Path 4174" class="cls-3" d="M81.3 25.9l126.1 71.6L226 86.6 99.9 15z"/><path id="Path_4175" data-name="Path 4175" class="cls-4" d="M55 41.3l126.1 71.6 18.6-10.9L73.6 30.4z"/><path id="Path_4176" data-name="Path 4176" class="cls-5" d="M29.1 56.4L155.2 128l18.7-10.9L47.8 45.5z"/></g><g id="Group_3873" data-name="Group 3873"><path id="Path_4177" data-name="Path 4177" class="cls-6" d="M104.6 283.6l18.7 10.8v-145l-18.7-10.8z"/><path id="Path_4178" data-name="Path 4178" class="cls-7" d="M18.7 88.8L0 78v145l18.7 10.8z"/><path id="Path_4179" data-name="Path 4179" class="cls-8" d="M44.4 248.7l-.1-145-18.7-10.9.1 145z"/><path id="Path_4180" data-name="Path 4180" class="cls-9" d="M70.7 264V118.9L52 108.1v145z"/><path id="Path_4181" data-name="Path 4181" class="cls-10" d="M96.6 278.9v-145l-18.7-10.8v145z"/></g><g id="Group_3874" data-name="Group 3874"><path id="Path_4182" data-name="Path 4182" class="cls-11" d="M256.8 98.5V76.8l-125.5 72.7v21.6z"/><path id="Path_4183" data-name="Path 4183" class="cls-12" d="M131.3 270.4v21.7l125.5-72.7v-21.7z"/><path id="Path_4184" data-name="Path 4184" class="cls-13" d="M256.8 168.1l-125.5 72.7v21.6l125.5-72.7z"/><path id="Path_4185" data-name="Path 4185" class="cls-14" d="M256.8 137.6l-125.5 72.7v21.6l125.5-72.7z"/><path id="Path_4186" data-name="Path 4186" class="cls-15" d="M256.8 107.7l-125.5 72.7V202l125.5-72.7z"/></g><g id="Group_3875" data-name="Group 3875"><path id="Path_4187" data-name="Path 4187" class="cls-16" d="M150.2 287.5l-18.7 11 126.1 71.6 18.7-11z"/><path id="Path_4188" data-name="Path 4188" class="cls-17" d="M362 309l18.6-10.9-126.1-71.6-18.6 10.9z"/><path id="Path_4189" data-name="Path 4189" class="cls-18" d="M210.3 252.4L336.4 324l18.6-10.9-126.1-71.6z"/><path id="Path_4190" data-name="Path 4190" class="cls-19" d="M184 267.8l126.1 71.6 18.6-10.9-126.1-71.6z"/><path id="Path_4191" data-name="Path 4191" class="cls-20" d="M158.1 282.9l126.1 71.6 18.7-10.9L176.8 272z"/></g><g id="Group_3876" data-name="Group 3876"><path id="Path_4192" data-name="Path 4192" class="cls-21" d="M233.6 510.1l18.7 10.8v-145l-18.7-10.8z"/><path id="Path_4193" data-name="Path 4193" class="cls-22" d="M147.7 315.3L129 304.5v145l18.7 10.8z"/><path id="Path_4194" data-name="Path 4194" class="cls-23" d="M173.4 475.2l-.1-145-18.7-10.9.1 145z"/><path id="Path_4195" data-name="Path 4195" class="cls-24" d="M199.7 490.5V345.4L181 334.6v145z"/><path id="Path_4196" data-name="Path 4196" class="cls-25" d="M225.6 505.4v-145l-18.7-10.8v145z"/></g><g id="Group_3877" data-name="Group 3877"><path id="Path_4197" data-name="Path 4197" class="cls-26" d="M385.8 325v-21.7L260.3 376v21.6z"/><path id="Path_4198" data-name="Path 4198" class="cls-27" d="M260.3 496.9v21.7l125.5-72.7v-21.7z"/><path id="Path_4199" data-name="Path 4199" class="cls-28" d="M385.8 394.6l-125.5 72.7v21.6l125.5-72.7z"/><path id="Path_4200" data-name="Path 4200" class="cls-29" d="M385.8 364.1l-125.5 72.7v21.6l125.5-72.7z"/><path id="Path_4201" data-name="Path 4201" class="cls-30" d="M385.8 334.2l-125.5 72.7v21.6l125.5-72.7z"/></g><g id="Group_3878" data-name="Group 3878"><path id="Path_4202" data-name="Path 4202" class="cls-31" d="M411.4 741l-18.7 10.9 126.2 71.6 18.6-10.9z"/><path id="Path_4203" data-name="Path 4203" class="cls-32" d="M623.2 762.5l18.7-10.9L515.8 680l-18.7 10.9z"/><path id="Path_4204" data-name="Path 4204" class="cls-28" d="M471.5 705.8l126.1 71.6 18.7-10.9-126.1-71.6z"/><path id="Path_4205" data-name="Path 4205" class="cls-33" d="M445.2 721.2l126.1 71.6 18.7-10.9-126.1-71.6z"/><path id="Path_4206" data-name="Path 4206" class="cls-34" d="M419.4 736.3l126.1 71.6 18.6-10.9L438 725.4z"/></g><g id="Group_3879" data-name="Group 3879"><path id="Path_4207" data-name="Path 4207" class="cls-35" d="M494.9 963.5l18.7 10.9v-145l-18.7-10.9z"/><path id="Path_4208" data-name="Path 4208" class="cls-36" d="M408.9 768.8l-18.7-10.9.1 145 18.7 10.9z"/><path id="Path_4209" data-name="Path 4209" class="cls-37" d="M434.6 928.6v-145l-18.7-10.8v145z"/><path id="Path_4210" data-name="Path 4210" class="cls-38" d="M461 943.9v-145l-18.7-10.8v145z"/><path id="Path_4211" data-name="Path 4211" class="cls-39" d="M486.9 958.9v-145l-18.7-10.8v145z"/></g><g id="Group_3880" data-name="Group 3880"><path id="Path_4212" data-name="Path 4212" class="cls-40" d="M647 778.4v-21.6l-125.4 72.7v21.6z"/><path id="Path_4213" data-name="Path 4213" class="cls-41" d="M521.6 950.4V972L647 899.3v-21.6z"/><path id="Path_4214" data-name="Path 4214" class="cls-42" d="M647 848.1l-125.4 72.7v21.6L647 869.7z"/><path id="Path_4215" data-name="Path 4215" class="cls-43" d="M647 817.6l-125.4 72.7v21.6L647 839.2z"/><path id="Path_4216" data-name="Path 4216" class="cls-44" d="M647 787.7l-125.4 72.7V882L647 809.3z"/></g><g id="Group_3881" data-name="Group 3881"><path id="Path_4217" data-name="Path 4217" class="cls-45" d="M21.2 514.5L2.5 525.4 128.6 597l18.7-10.9z"/><path id="Path_4218" data-name="Path 4218" class="cls-46" d="M233 536l18.6-10.9-126.1-71.6-18.6 10.9z"/><path id="Path_4219" data-name="Path 4219" class="cls-47" d="M81.3 479.3l126.1 71.6L226 540 99.9 468.4z"/><path id="Path_4220" data-name="Path 4220" class="cls-48" d="M55 494.7l126.1 71.6 18.6-10.9-126.1-71.6z"/><path id="Path_4221" data-name="Path 4221" class="cls-49" d="M29.1 509.8l126.1 71.6 18.7-10.9-126.1-71.6z"/></g><g id="Group_3882" data-name="Group 3882"><path id="Path_4222" data-name="Path 4222" class="cls-50" d="M104.6 737l18.7 10.9v-145L104.6 592z"/><path id="Path_4223" data-name="Path 4223" class="cls-51" d="M18.7 542.3L0 531.4v145l18.7 10.9z"/><path id="Path_4224" data-name="Path 4224" class="cls-52" d="M44.4 702.1l-.1-145-18.7-10.8.1 145z"/><path id="Path_4225" data-name="Path 4225" class="cls-53" d="M70.7 717.4v-145L52 561.6v145z"/><path id="Path_4226" data-name="Path 4226" class="cls-54" d="M96.6 732.4v-145l-18.7-10.8v145z"/></g><g id="Group_3883" data-name="Group 3883"><path id="Path_4227" data-name="Path 4227" class="cls-27" d="M256.8 551.9v-21.6L131.3 603v21.6z"/><path id="Path_4228" data-name="Path 4228" class="cls-27" d="M131.3 723.9v21.6l125.5-72.7v-21.6z"/><path id="Path_4229" data-name="Path 4229" class="cls-55" d="M256.8 621.6l-125.5 72.7v21.6l125.5-72.7z"/><path id="Path_4230" data-name="Path 4230" class="cls-56" d="M256.8 591.1l-125.5 72.7v21.6l125.5-72.7z"/><path id="Path_4231" data-name="Path 4231" class="cls-57" d="M256.8 561.2l-125.5 72.7v21.6l125.5-72.7z"/></g><g id="Group_3884" data-name="Group 3884"><path id="Path_4232" data-name="Path 4232" class="cls-45" d="M282.2 514.5l-18.7 10.9L389.6 597l18.7-10.9z"/><path id="Path_4233" data-name="Path 4233" class="cls-46" d="M494 536l18.6-10.9-126.1-71.6-18.6 10.9z"/><path id="Path_4234" data-name="Path 4234" class="cls-47" d="M342.3 479.3l126.1 71.6L487 540l-126.1-71.6z"/><path id="Path_4235" data-name="Path 4235" class="cls-48" d="M316 494.7l126.1 71.6 18.6-10.9-126.1-71.6z"/><path id="Path_4236" data-name="Path 4236" class="cls-49" d="M290.1 509.8l126.1 71.6 18.7-10.9-126.1-71.6z"/></g><g id="Group_3885" data-name="Group 3885"><path id="Path_4237" data-name="Path 4237" class="cls-58" d="M365.6 737l18.7 10.9v-145L365.6 592z"/><path id="Path_4238" data-name="Path 4238" class="cls-59" d="M279.7 542.3L261 531.4v145l18.7 10.9z"/><path id="Path_4239" data-name="Path 4239" class="cls-60" d="M305.4 702.1l-.1-145-18.7-10.8.1 145z"/><path id="Path_4240" data-name="Path 4240" class="cls-61" d="M331.7 717.4v-145L313 561.6v145z"/><path id="Path_4241" data-name="Path 4241" class="cls-62" d="M357.6 732.4v-145l-18.7-10.8v145z"/></g><g id="Group_3886" data-name="Group 3886"><path id="Path_4242" data-name="Path 4242" class="cls-27" d="M517.8 551.9v-21.6L392.3 603v21.6z"/><path id="Path_4243" data-name="Path 4243" class="cls-27" d="M392.3 723.9v21.6l125.5-72.7v-21.6z"/><path id="Path_4244" data-name="Path 4244" class="cls-55" d="M517.8 621.6l-125.5 72.7v21.6l125.5-72.7z"/><path id="Path_4245" data-name="Path 4245" class="cls-56" d="M517.8 591.1l-125.5 72.7v21.6l125.5-72.7z"/><path id="Path_4246" data-name="Path 4246" class="cls-57" d="M517.8 561.2l-125.5 72.7v21.6l125.5-72.7z"/></g><g id="Group_3887" data-name="Group 3887"><path id="Path_4247" data-name="Path 4247" class="cls-45" d="M150.2 741l-18.7 10.9 126.1 71.6 18.7-10.9z"/><path id="Path_4248" data-name="Path 4248" class="cls-46" d="M362 762.5l18.6-10.9L254.5 680l-18.6 10.9z"/><path id="Path_4249" data-name="Path 4249" class="cls-47" d="M210.3 705.8l126.1 71.6 18.6-10.9-126.1-71.6z"/><path id="Path_4250" data-name="Path 4250" class="cls-63" d="M184 721.2l126.1 71.6 18.6-10.9-126.1-71.6z"/><path id="Path_4251" data-name="Path 4251" class="cls-49" d="M158.1 736.3l126.1 71.6 18.7-10.9-126.1-71.6z"/></g><g id="Group_3888" data-name="Group 3888"><path id="Path_4252" data-name="Path 4252" class="cls-64" d="M233.6 963.5l18.7 10.9v-145l-18.7-10.9z"/><path id="Path_4253" data-name="Path 4253" class="cls-65" d="M147.7 768.8L129 757.9v145l18.7 10.9z"/><path id="Path_4254" data-name="Path 4254" class="cls-66" d="M173.4 928.6l-.1-145-18.7-10.8.1 145z"/><path id="Path_4255" data-name="Path 4255" class="cls-67" d="M199.7 943.9v-145L181 788.1v145z"/><path id="Path_4256" data-name="Path 4256" class="cls-68" d="M225.6 958.9v-145l-18.7-10.8v145z"/></g><g id="Group_3889" data-name="Group 3889"><path id="Path_4257" data-name="Path 4257" class="cls-27" d="M385.8 778.4v-21.6l-125.5 72.7v21.6z"/><path id="Path_4258" data-name="Path 4258" class="cls-27" d="M260.3 950.4V972l125.5-72.7v-21.6z"/><path id="Path_4259" data-name="Path 4259" class="cls-55" d="M385.8 848.1l-125.5 72.7v21.6l125.5-72.7z"/><path id="Path_4260" data-name="Path 4260" class="cls-56" d="M385.8 817.6l-125.5 72.7v21.6l125.5-72.7z"/><path id="Path_4261" data-name="Path 4261" class="cls-57" d="M385.8 787.7l-125.5 72.7V882l125.5-72.7z"/></g><g id="Group_3890" data-name="Group 3890"><path id="Path_4262" data-name="Path 4262" class="cls-45" d="M545.2 969.5l-18.7 10.9 126.1 71.6 18.7-10.9z"/><path id="Path_4263" data-name="Path 4263" class="cls-46" d="M757 991l18.6-10.9-126.1-71.6-18.6 10.9z"/><path id="Path_4264" data-name="Path 4264" class="cls-47" d="M605.3 934.3l126.1 71.6L750 995l-126.1-71.6z"/><path id="Path_4265" data-name="Path 4265" class="cls-69" d="M579 949.7l126.1 71.6 18.6-10.9-126.1-71.6z"/><path id="Path_4266" data-name="Path 4266" class="cls-70" d="M553.1 964.8l126.1 71.6 18.7-10.9-126.1-71.6z"/></g><g id="Group_3891" data-name="Group 3891"><path id="Path_4267" data-name="Path 4267" class="cls-71" d="M628.6 1192l18.7 10.9v-145l-18.7-10.9z"/><path id="Path_4268" data-name="Path 4268" class="cls-72" d="M542.7 997.3L524 986.4v145l18.7 10.9z"/><path id="Path_4269" data-name="Path 4269" class="cls-73" d="M568.3 1157.1v-145l-18.7-10.8v145z"/><path id="Path_4270" data-name="Path 4270" class="cls-74" d="M594.7 1172.4v-145l-18.7-10.8v145z"/><path id="Path_4271" data-name="Path 4271" class="cls-75" d="M620.6 1187.4v-145l-18.7-10.8v145z"/></g><g id="Group_3892" data-name="Group 3892"><path id="Path_4272" data-name="Path 4272" class="cls-76" d="M780.8 1006.9v-21.6L655.3 1058v21.6z"/><path id="Path_4273" data-name="Path 4273" class="cls-76" d="M655.3 1178.9v21.6l125.5-72.7v-21.6z"/><path id="Path_4274" data-name="Path 4274" class="cls-77" d="M780.8 1076.6l-125.5 72.7v21.6l125.5-72.7z"/><path id="Path_4275" data-name="Path 4275" class="cls-77" d="M780.8 1046.1l-125.5 72.7v21.6l125.5-72.7z"/><path id="Path_4276" data-name="Path 4276" class="cls-78" d="M780.8 1016.2l-125.5 72.7v21.6l125.5-72.7z"/></g><g id="Group_3893" data-name="Group 3893"><path id="Path_4277" data-name="Path 4277" class="cls-45" d="M674.2 1196l-18.7 10.9 126.1 71.6 18.7-10.9z"/><path id="Path_4278" data-name="Path 4278" class="cls-46" d="M886 1217.5l18.6-10.9-126.1-71.6-18.6 10.9z"/><path id="Path_4279" data-name="Path 4279" class="cls-47" d="M734.3 1160.8l126.1 71.6 18.6-10.9-126.1-71.6z"/><path id="Path_4280" data-name="Path 4280" class="cls-69" d="M708 1176.2l126.1 71.6 18.6-10.9-126.1-71.6z"/><path id="Path_4281" data-name="Path 4281" class="cls-49" d="M682.1 1191.3l126.1 71.6 18.7-10.9-126.1-71.6z"/></g><g id="Group_3894" data-name="Group 3894"><path id="Path_4282" data-name="Path 4282" class="cls-79" d="M757.6 1418.5l18.7 10.9v-145l-18.7-10.9z"/><path id="Path_4283" data-name="Path 4283" class="cls-80" d="M671.7 1223.8l-18.7-10.9v145l18.7 10.9z"/><path id="Path_4284" data-name="Path 4284" class="cls-81" d="M697.3 1383.6v-145l-18.7-10.8v145z"/><path id="Path_4285" data-name="Path 4285" class="cls-82" d="M723.7 1398.9v-145l-18.7-10.8v145z"/><path id="Path_4286" data-name="Path 4286" class="cls-83" d="M749.6 1413.9v-145l-18.7-10.8v145z"/></g><g id="Group_3895" data-name="Group 3895"><path id="Path_4287" data-name="Path 4287" class="cls-76" d="M909.8 1233.4v-21.6l-125.5 72.7v21.6z"/><path id="Path_4288" data-name="Path 4288" class="cls-84" d="M784.3 1405.4v21.6l125.5-72.7v-21.6z"/><path id="Path_4289" data-name="Path 4289" class="cls-77" d="M909.8 1303.1l-125.5 72.7v21.6l125.5-72.7z"/><path id="Path_4290" data-name="Path 4290" class="cls-85" d="M909.8 1272.6l-125.5 72.7v21.6l125.5-72.7z"/><path id="Path_4291" data-name="Path 4291" class="cls-78" d="M909.8 1242.7l-125.5 72.7v21.6l125.5-72.7z"/></g><g id="Group_3896" data-name="Group 3896"><path id="Path_4292" data-name="Path 4292" class="cls-31" d="M411.4 1196l-18.7 10.9 126.2 71.6 18.6-10.9z"/><path id="Path_4293" data-name="Path 4293" class="cls-32" d="M623.2 1217.5l18.7-10.9-126.1-71.6-18.7 10.9z"/><path id="Path_4294" data-name="Path 4294" class="cls-28" d="M471.5 1160.8l126.1 71.6 18.7-10.9-126.1-71.6z"/><path id="Path_4295" data-name="Path 4295" class="cls-33" d="M445.2 1176.2l126.1 71.6 18.7-10.9-126.1-71.6z"/><path id="Path_4296" data-name="Path 4296" class="cls-34" d="M419.4 1191.3l126.1 71.6 18.6-10.9-126.1-71.6z"/></g><g id="Group_3897" data-name="Group 3897"><path id="Path_4297" data-name="Path 4297" class="cls-86" d="M494.9 1418.5l18.7 10.9v-145l-18.7-10.9z"/><path id="Path_4298" data-name="Path 4298" class="cls-80" d="M408.9 1223.8l-18.7-10.9.1 145 18.7 10.9z"/><path id="Path_4299" data-name="Path 4299" class="cls-87" d="M434.6 1383.6v-145l-18.7-10.8v145z"/><path id="Path_4300" data-name="Path 4300" class="cls-88" d="M461 1398.9v-145l-18.7-10.8v145z"/><path id="Path_4301" data-name="Path 4301" class="cls-89" d="M486.9 1413.9v-145l-18.7-10.8v145z"/></g><g id="Group_3898" data-name="Group 3898"><path id="Path_4302" data-name="Path 4302" class="cls-40" d="M647 1233.4v-21.6l-125.4 72.7v21.6z"/><path id="Path_4303" data-name="Path 4303" class="cls-41" d="M521.6 1405.4v21.6l125.4-72.7v-21.6z"/><path id="Path_4304" data-name="Path 4304" class="cls-42" d="M647 1303.1l-125.4 72.7v21.6l125.4-72.7z"/><path id="Path_4305" data-name="Path 4305" class="cls-43" d="M647 1272.6l-125.4 72.7v21.6l125.4-72.7z"/><path id="Path_4306" data-name="Path 4306" class="cls-44" d="M647 1242.7l-125.4 72.7v21.6l125.4-72.7z"/></g><g id="Group_3899" data-name="Group 3899"><path id="Path_4307" data-name="Path 4307" class="cls-45" d="M21.2 969.5L2.5 980.4l126.1 71.6 18.7-10.9z"/><path id="Path_4308" data-name="Path 4308" class="cls-46" d="M233 991l18.6-10.9-126.1-71.6-18.6 10.9z"/><path id="Path_4309" data-name="Path 4309" class="cls-47" d="M81.3 934.3l126.1 71.6L226 995 99.9 923.4z"/><path id="Path_4310" data-name="Path 4310" class="cls-48" d="M55 949.7l126.1 71.6 18.6-10.9-126.1-71.6z"/><path id="Path_4311" data-name="Path 4311" class="cls-70" d="M29.1 964.8l126.1 71.6 18.7-10.9-126.1-71.6z"/></g><g id="Group_3900" data-name="Group 3900"><path id="Path_4312" data-name="Path 4312" class="cls-50" d="M104.6 1192l18.7 10.9v-145l-18.7-10.9z"/><path id="Path_4313" data-name="Path 4313" class="cls-51" d="M18.7 997.3L0 986.4v145l18.7 10.9z"/><path id="Path_4314" data-name="Path 4314" class="cls-52" d="M44.4 1157.1l-.1-145-18.7-10.8.1 145z"/><path id="Path_4315" data-name="Path 4315" class="cls-53" d="M70.7 1172.4v-145L52 1016.6v145z"/><path id="Path_4316" data-name="Path 4316" class="cls-54" d="M96.6 1187.4v-145l-18.7-10.8v145z"/></g><g id="Group_3901" data-name="Group 3901"><path id="Path_4317" data-name="Path 4317" class="cls-27" d="M256.8 1006.9v-21.6L131.3 1058v21.6z"/><path id="Path_4318" data-name="Path 4318" class="cls-27" d="M131.3 1178.9v21.6l125.5-72.7v-21.6z"/><path id="Path_4319" data-name="Path 4319" class="cls-55" d="M256.8 1076.6l-125.5 72.7v21.6l125.5-72.7z"/><path id="Path_4320" data-name="Path 4320" class="cls-55" d="M256.8 1046.1l-125.5 72.7v21.6l125.5-72.7z"/><path id="Path_4321" data-name="Path 4321" class="cls-57" d="M256.8 1016.2l-125.5 72.7v21.6l125.5-72.7z"/></g><g id="Group_3902" data-name="Group 3902"><path id="Path_4322" data-name="Path 4322" class="cls-45" d="M282.2 969.5l-18.7 10.9 126.1 71.6 18.7-10.9z"/><path id="Path_4323" data-name="Path 4323" class="cls-46" d="M494 991l18.6-10.9-126.1-71.6-18.6 10.9z"/><path id="Path_4324" data-name="Path 4324" class="cls-47" d="M342.3 934.3l126.1 71.6L487 995l-126.1-71.6z"/><path id="Path_4325" data-name="Path 4325" class="cls-48" d="M316 949.7l126.1 71.6 18.6-10.9-126.1-71.6z"/><path id="Path_4326" data-name="Path 4326" class="cls-70" d="M290.1 964.8l126.1 71.6 18.7-10.9-126.1-71.6z"/></g><g id="Group_3903" data-name="Group 3903"><path id="Path_4327" data-name="Path 4327" class="cls-90" d="M365.6 1192l18.7 10.9v-145l-18.7-10.9z"/><path id="Path_4328" data-name="Path 4328" class="cls-91" d="M279.7 997.3L261 986.4v145l18.7 10.9z"/><path id="Path_4329" data-name="Path 4329" class="cls-92" d="M305.4 1157.1l-.1-145-18.7-10.8.1 145z"/><path id="Path_4330" data-name="Path 4330" class="cls-93" d="M331.7 1172.4v-145l-18.7-10.8v145z"/><path id="Path_4331" data-name="Path 4331" class="cls-94" d="M357.6 1187.4v-145l-18.7-10.8v145z"/></g><g id="Group_3904" data-name="Group 3904"><path id="Path_4332" data-name="Path 4332" class="cls-27" d="M517.8 1006.9v-21.6L392.3 1058v21.6z"/><path id="Path_4333" data-name="Path 4333" class="cls-27" d="M392.3 1178.9v21.6l125.5-72.7v-21.6z"/><path id="Path_4334" data-name="Path 4334" class="cls-55" d="M517.8 1076.6l-125.5 72.7v21.6l125.5-72.7z"/><path id="Path_4335" data-name="Path 4335" class="cls-55" d="M517.8 1046.1l-125.5 72.7v21.6l125.5-72.7z"/><path id="Path_4336" data-name="Path 4336" class="cls-57" d="M517.8 1016.2l-125.5 72.7v21.6l125.5-72.7z"/></g><g id="Group_3905" data-name="Group 3905"><path id="Path_4337" data-name="Path 4337" class="cls-45" d="M150.2 1196l-18.7 10.9 126.1 71.6 18.7-10.9z"/><path id="Path_4338" data-name="Path 4338" class="cls-46" d="M362 1217.5l18.6-10.9-126.1-71.6-18.6 10.9z"/><path id="Path_4339" data-name="Path 4339" class="cls-47" d="M210.3 1160.8l126.1 71.6 18.6-10.9-126.1-71.6z"/><path id="Path_4340" data-name="Path 4340" class="cls-63" d="M184 1176.2l126.1 71.6 18.6-10.9-126.1-71.6z"/><path id="Path_4341" data-name="Path 4341" class="cls-49" d="M158.1 1191.3l126.1 71.6 18.7-10.9-126.1-71.6z"/></g><g id="Group_3906" data-name="Group 3906"><path id="Path_4342" data-name="Path 4342" class="cls-95" d="M233.6 1418.5l18.7 10.9v-145l-18.7-10.9z"/><path id="Path_4343" data-name="Path 4343" class="cls-51" d="M147.7 1223.8l-18.7-10.9v145l18.7 10.9z"/><path id="Path_4344" data-name="Path 4344" class="cls-52" d="M173.4 1383.6l-.1-145-18.7-10.8.1 145z"/><path id="Path_4345" data-name="Path 4345" class="cls-96" d="M199.7 1398.9v-145l-18.7-10.8v145z"/><path id="Path_4346" data-name="Path 4346" class="cls-97" d="M225.6 1413.9v-145l-18.7-10.8v145z"/></g><g id="Group_3907" data-name="Group 3907"><path id="Path_4347" data-name="Path 4347" class="cls-27" d="M385.8 1233.4v-21.6l-125.5 72.7v21.6z"/><path id="Path_4348" data-name="Path 4348" class="cls-27" d="M260.3 1405.4v21.6l125.5-72.7v-21.6z"/><path id="Path_4349" data-name="Path 4349" class="cls-55" d="M385.8 1303.1l-125.5 72.7v21.6l125.5-72.7z"/><path id="Path_4350" data-name="Path 4350" class="cls-56" d="M385.8 1272.6l-125.5 72.7v21.6l125.5-72.7z"/><path id="Path_4351" data-name="Path 4351" class="cls-57" d="M385.8 1242.7l-125.5 72.7v21.6l125.5-72.7z"/></g></g></svg>