<?xml version="1.0" encoding="UTF-8" standalone="no"?>
<svg
   xmlns:dc="http://purl.org/dc/elements/1.1/"
   xmlns:cc="http://creativecommons.org/ns#"
   xmlns:rdf="http://www.w3.org/1999/02/22-rdf-syntax-ns#"
   xmlns:svg="http://www.w3.org/2000/svg"
   xmlns="http://www.w3.org/2000/svg"
   xmlns:xlink="http://www.w3.org/1999/xlink"
   id="svg8"
   version="1.1"
   viewBox="0 0 207.84559 79.663131"
   height="79.663132mm"
   width="207.8456mm">
  <defs
     id="defs2">
    <clipPath
       id="animationMask_kfToCsJTCZ">
      <rect
         width="540"
         height="216"
         x="0"
         y="0"
         id="rect3751" />
    </clipPath>
    <linearGradient
       id="gr_hfz5vRjvlF"
       spreadMethod="pad"
       gradientUnits="userSpaceOnUse"
       x1="0"
       y1="-25"
       x2="0"
       y2="25">
      <stop
         offset="0%"
         stop-color="rgb(93,13,54)"
         id="stop3754" />
      <stop
         offset="50%"
         stop-color="rgb(124,27,88)"
         id="stop3756" />
      <stop
         offset="100%"
         stop-color="rgb(155,40,123)"
         id="stop3758" />
    </linearGradient>
    <linearGradient
       gradientTransform="translate(11.616755,-36.244025)"
       id="gr_1r7XdYwdoh"
       spreadMethod="pad"
       gradientUnits="userSpaceOnUse"
       x1="0"
       y1="-25"
       x2="0"
       y2="25">
      <stop
         offset="0%"
         stop-color="rgb(237,35,104)"
         id="stop3782" />
      <stop
         offset="50%"
         stop-color="rgb(181,27,80)"
         id="stop3784" />
      <stop
         offset="100%"
         stop-color="rgb(124,19,55)"
         id="stop3786" />
    </linearGradient>
    <linearGradient
       spreadMethod="pad"
       y2="25"
       x2="0"
       y1="-25"
       x1="0"
       gradientUnits="userSpaceOnUse"
       id="linearGradient4047"
       xlink:href="#gr_hfz5vRjvlF" />
    <linearGradient
       spreadMethod="pad"
       y2="25"
       x2="0"
       y1="-25"
       x1="0"
       gradientUnits="userSpaceOnUse"
       id="linearGradient4049"
       xlink:href="#gr_hfz5vRjvlF" />
    <linearGradient
       spreadMethod="pad"
       y2="25"
       x2="0"
       y1="-25"
       x1="0"
       gradientUnits="userSpaceOnUse"
       id="linearGradient4051"
       xlink:href="#gr_hfz5vRjvlF" />
    <linearGradient
       spreadMethod="pad"
       y2="25"
       x2="0"
       y1="-25"
       x1="0"
       gradientUnits="userSpaceOnUse"
       id="linearGradient4053"
       xlink:href="#gr_hfz5vRjvlF" />
  </defs>
  <metadata
     id="metadata5">
    <rdf:RDF>
      <cc:Work
         rdf:about="">
        <dc:format>image/svg+xml</dc:format>
        <dc:type
           rdf:resource="http://purl.org/dc/dcmitype/StillImage" />
        <dc:title></dc:title>
      </cc:Work>
    </rdf:RDF>
  </metadata>
  <g
     transform="translate(16.539573,-28.114864)"
     id="layer1">
    <path
       id="path3811-9-3-6-5"
       d="M 33.253873,67.78779 H 26.464838 -1.7251104 -2.3386674"
       stroke-miterlimit="10"
       style="opacity:0.77600002;fill-opacity:0;stroke:#4abeae;stroke-width:1.13763905;stroke-linecap:butt;stroke-linejoin:miter;stroke-miterlimit:10;stroke-dasharray:none;stroke-opacity:1" />
    <path
       id="path3811-9-3-6"
       d="M 82.002425,67.66527 H 76.369997 52.473563"
       stroke-miterlimit="10"
       style="opacity:0.77600002;fill-opacity:0;stroke:#4abeae;stroke-width:1.20000005;stroke-linecap:butt;stroke-linejoin:miter;stroke-miterlimit:10;stroke-dasharray:none;stroke-opacity:1" />
    <g
       id="g3837"
       style="font-style:normal;font-weight:700;font-size:15px;font-family:'Exo 2';display:block;opacity:0.77600002;fill:#ffffff"
       transform="matrix(0.396875,0,0,0.396875,24.975535,40.260429)"
       font-weight="700"
       font-style="normal"
       font-size="15" />
    <path
       id="path3811-9-3"
       d="m 137.01012,68.090492 h -26.2101"
       stroke-miterlimit="10"
       style="opacity:0.77600002;fill-opacity:0;stroke:#4abeae;stroke-width:1.20000005;stroke-linecap:butt;stroke-linejoin:miter;stroke-miterlimit:10;stroke-dasharray:none;stroke-opacity:1" />
    <g
       transform="matrix(0.396875,0,0,0.396875,-23.04634,24.83112)"
       id="g3873"
       style="display:block;opacity:0.77600002">
      <g
         id="g3871"
         transform="translate(301.052,108.308)"
         style="opacity:1">
        <path
           id="path3867"
           style="display:block;fill:#461b37;fill-opacity:1"
           d="m 0,0 m 35.811,18.243 c 0,0 -71.623,0 -71.623,0 -0.235,0 -0.426,-0.19 -0.426,-0.426 0,0 0,-35.633 0,-35.633 0,-0.235 0.191,-0.427 0.426,-0.427 0,0 71.623,0 71.623,0 0.235,0 0.427,0.192 0.427,0.427 0,0 0,35.633 0,35.633 0,0.236 -0.192,0.426 -0.427,0.426 z" />
        <path
           id="path3869"
           style="display:block;fill:url(#linearGradient4047);fill-opacity:1"
           d="m 0,0 m 35.811,18.243 c 0,0 -71.623,0 -71.623,0 -0.235,0 -0.426,-0.19 -0.426,-0.426 0,0 0,-35.633 0,-35.633 0,-0.235 0.191,-0.427 0.426,-0.427 0,0 71.623,0 71.623,0 0.235,0 0.427,0.192 0.427,0.427 0,0 0,35.633 0,35.633 0,0.236 -0.192,0.426 -0.427,0.426 z" />
      </g>
    </g>
    <g
       id="g3877"
       style="font-style:normal;font-weight:700;font-size:15px;font-family:'Exo 2';display:block;opacity:1;fill:#ffffff"
       transform="matrix(0.396875,0,0,0.396875,96.358265,69.552185)"
       font-weight="700"
       font-style="normal"
       font-size="15">
      <path
         id="path3875"
         style="display:inherit;stroke-linecap:butt;stroke-linejoin:round;stroke-miterlimit:4"
         d="m -21.5679,-10.42335 c 0,0 -2.2962,0 -2.2962,0 0,0 0,7.9611 0,7.9611 0,0.52875 -0.31725,0.80055 -0.99705,0.80055 0,0 -0.70995,0 -0.70995,0 0,0 -0.2568,1.5408 -0.2568,1.5408 0.423,0.19635 1.3746,0.3021 1.90335,0.3021 1.48035,0 2.35665,-0.84585 2.35665,-2.37165 0,0 0,-8.2329 0,-8.2329 z m 5.6712,8.8221 c -1.13295,0 -1.6164,-0.24165 -1.76745,-1.3746 0,0 2.68905,0 2.68905,0 1.6164,0 2.2659,-0.7251 2.2659,-2.0847 -0.01515,-1.707 -0.99705,-2.5983 -3.5349,-2.5983 -2.70405,0 -3.7917,0.99705 -3.7917,3.94275 0,2.74935 1.0575,3.8973 3.8823,3.8973 1.0575,0 2.3718,-0.1359 3.24795,-0.5589 0,0 -0.2115,-1.38975 -0.2115,-1.38975 -1.01205,0.10575 -2.09985,0.1662 -2.77965,0.1662 z m -0.2718,-4.42605 c 0.96675,0 1.26885,0.2415 1.26885,0.93645 0,0.423 -0.09075,0.77055 -0.69495,0.77055 0,0 -2.11485,0 -2.11485,0 0.06045,-1.4049 0.42315,-1.72215 1.54095,-1.707 z m 10.01625,-1.63155 c -1.0725,0 -2.16015,0.4683 -3.18735,1.3143 0,0 -0.1662,-1.1028 -0.1662,-1.1028 0,0 -1.81275,0 -1.81275,0 0,0 0,7.44735 0,7.44735 0,0 2.23575,0 2.23575,0 0,0 -0.01515,-5.09085 -0.01515,-5.09085 0.8913,-0.45315 1.46535,-0.67965 2.0847,-0.67965 0.54375,0 0.7251,0.19635 0.7251,0.87615 0,0 0,4.89435 0,4.89435 0,0 2.2206,0 2.2206,0 0,0 0,-5.5893 0,-5.5893 0,-1.34445 -0.7251,-2.06955 -2.0847,-2.06955 z M 0.4914,-3.4593 c 0,0 2.0997,3.4593 2.0997,3.4593 0,0 2.5077,0 2.5077,0 0,0 -2.19045,-3.3234 -2.19045,-3.3234 -0.1812,-0.31725 -0.51375,-0.67965 -0.69495,-0.80055 0,0 0,-0.0303 0,-0.0303 0.1812,-0.1209 0.51375,-0.40785 0.69495,-0.70995 0,0 1.9335,-2.58315 1.9335,-2.58315 0,0 -2.50755,0 -2.50755,0 0,0 -1.8429,2.5983 -1.8429,2.5983 0,0 -0.69495,0 -0.69495,0 0.0756,-0.43815 0.10575,-0.8913 0.10575,-1.3596 0,0 0,-4.36575 0,-4.36575 0,0 -2.23575,0 -2.23575,0 0,0 0,10.5744 0,10.5744 0,0 2.23575,0 2.23575,0 0,0 0,-2.3415 0,-2.3415 0,-0.3324 -0.0453,-0.7251 -0.10575,-1.1178 0,0 0.69495,0 0.69495,0 z m 6.1947,-7.28115 c -0.43815,0 -0.6495,0.2265 -0.6495,0.6495 0,0 0,0.8157 0,0.8157 0,0.43815 0.21135,0.64965 0.6495,0.64965 0,0 0.99705,0 0.99705,0 0.43815,0 0.64965,-0.2115 0.64965,-0.64965 0,0 0,-0.8157 0,-0.8157 0,-0.423 -0.2115,-0.6495 -0.64965,-0.6495 0,0 -0.99705,0 -0.99705,0 z M 8.3025,0 c 0,0 0,-7.44735 0,-7.44735 0,0 -2.2206,0 -2.2206,0 0,0 0,7.44735 0,7.44735 0,0 2.2206,0 2.2206,0 z m 7.02525,-7.65885 c -1.0725,0 -2.16015,0.4683 -3.18735,1.3143 0,0 -0.1662,-1.1028 -0.1662,-1.1028 0,0 -1.81275,0 -1.81275,0 0,0 0,7.44735 0,7.44735 0,0 2.23575,0 2.23575,0 0,0 -0.01515,-5.09085 -0.01515,-5.09085 0.8913,-0.45315 1.46535,-0.67965 2.0847,-0.67965 0.54375,0 0.7251,0.19635 0.7251,0.87615 0,0 0,4.89435 0,4.89435 0,0 2.2206,0 2.2206,0 0,0 0,-5.5893 0,-5.5893 0,-1.34445 -0.7251,-2.06955 -2.0847,-2.06955 z m 6.6285,0 c -2.32635,0 -3.17235,0.57405 -3.17235,2.13 0,1.17825 0.3927,1.85805 1.81275,2.2659 0,0 1.85805,0.49845 1.85805,0.49845 0.74025,0.2115 1.0575,0.2418 1.0575,0.69495 0,0.48345 -0.3474,0.5589 -1.8732,0.5589 -0.99705,0 -2.0394,0 -2.58315,-0.03015 0,0 -0.1359,1.4502 -0.1359,1.4502 1.43505,0.24165 2.7795,0.2568 3.3384,0.2568 2.40195,0 3.414,-0.43815 3.414,-2.28105 0,-1.29915 -0.57405,-1.81275 -1.8429,-2.1753 0,0 -1.9035,-0.5136 -1.9035,-0.5136 -0.70995,-0.19635 -0.9819,-0.2115 -0.9819,-0.66465 0,-0.49845 0.27195,-0.4986 1.4352,-0.4986 0.9366,0 1.91835,0.01515 2.8701,0.0303 0,0 0.15105,-1.4352 0.15105,-1.4352 -0.92145,-0.1662 -2.37165,-0.2718 -3.44415,-0.28695 z"
         stroke-miterlimit="4" />
    </g>
    <path
       id="path3811-9"
       d="m 146.59113,48.298518 v 8.592701"
       stroke-miterlimit="10"
       style="opacity:0.77600002;fill-opacity:0;stroke:#4abeae;stroke-width:1.19062495;stroke-linecap:butt;stroke-linejoin:miter;stroke-miterlimit:10;stroke-opacity:1" />
    <path
       id="path3811-9-7"
       d="m 146.59111,78.51594 v 9.093831"
       stroke-miterlimit="10"
       style="opacity:0.77600002;fill-opacity:0;stroke:#4abeae;stroke-width:1.19062495;stroke-linecap:butt;stroke-linejoin:miter;stroke-miterlimit:10;stroke-opacity:1" />
    <g
       transform="matrix(0.396875,0,0,0.396875,-23.04634,24.83112)"
       id="g3889"
       style="display:block;opacity:0.77600002">
      <g
         id="g3883"
         transform="translate(427.433,108.308)"
         style="opacity:1">
        <path
           id="path3879"
           style="display:block;fill:#461b37;fill-opacity:1"
           d="m 0,0 m 0,-27.971 c 0,0 -24.224,13.985 -24.224,13.985 0,0 0,27.972 0,27.972 0,0 24.224,13.985 24.224,13.985 0,0 24.224,-13.985 24.224,-13.985 0,0 0,-27.972 0,-27.972 0,0 -24.224,-13.985 -24.224,-13.985 z" />
        <path
           id="path3881"
           style="display:block;fill:url(#linearGradient4049);fill-opacity:1"
           d="m 0,0 m 0,-27.971 c 0,0 -24.224,13.985 -24.224,13.985 0,0 0,27.972 0,27.972 0,0 24.224,13.985 24.224,13.985 0,0 24.224,-13.985 24.224,-13.985 0,0 0,-27.972 0,-27.972 0,0 -24.224,-13.985 -24.224,-13.985 z" />
      </g>
      <g
         id="g3887"
         transform="translate(429.174,109.761)"
         style="opacity:1">
        <path
           id="path3885"
           style="display:block;fill:#ffffff;fill-opacity:1"
           d="m 0,0 m -17.6,-8.133 c 4.904,-2.832 9.77,-5.643 14.652,-8.461 1.738,0.977 3.465,1.948 5.205,2.927 2.117,-1.22 4.221,-2.433 6.367,-3.67 2.993,1.728 5.986,3.456 8.976,5.183 0,0 0,10.467 0,10.467 -1.944,1.126 -3.894,2.254 -5.863,3.392 0,0 0,7.157 0,7.157 -4.898,2.828 -9.779,5.647 -14.678,8.475 -4.892,-2.824 -9.774,-5.644 -14.659,-8.465 0,0 0,-17.005 0,-17.005 z M 0,0 m -3.711,15.116 c 0,0 0,-14.3 0,-14.3 -4.099,-2.367 -8.202,-4.737 -12.35,-7.132 0,0 0,14.301 0,14.301 4.102,2.368 8.191,4.73 12.35,7.131 z M 0,0 m -2.919,-14.813 c -2.996,1.593 -11.974,6.839 -12.313,7.198 4.095,2.364 8.187,4.727 12.291,7.097 1.794,-1.038 3.57,-2.066 5.416,-3.132 -2.349,-1.359 -4.613,-2.669 -6.958,-4.026 1.41,-0.803 2.738,-1.558 4.085,-2.325 0,0 0,-2.082 0,-2.082 0.327,-0.3 0.74,-0.396 1.045,-0.72 -1.213,-0.683 -2.379,-1.342 -3.566,-2.01 z M 0,0 M 10.202,2.59 C 9.004,3.276 7.879,3.93 6.745,4.57 5.62,5.203 4.524,5.891 3.283,6.536 c 0,0 0,-0.73 0,-0.73 0,-2.492 0.002,-4.986 -0.004,-7.479 -10e-4,-0.195 0.077,-0.422 -0.115,-0.593 -1.787,1.032 -3.552,2.051 -5.307,3.065 0,0 0,14.301 0,14.301 4.149,-2.397 8.253,-4.767 12.345,-7.13 0,0 0,-5.38 0,-5.38 z M 0,0 m 15.072,-11.635 c -2.204,-1.271 -4.321,-2.491 -6.451,-3.72 -2.14,1.236 -4.254,2.456 -6.447,3.722 2.208,1.275 4.337,2.502 6.45,3.722 2.153,-1.243 4.254,-2.457 6.448,-3.724 z M 0,0 m 15.932,-10.148 c -2.178,1.258 -4.295,2.48 -6.433,3.716 0,2.329 -0.001,4.642 0,6.957 0,0.115 0.013,0.23 0.023,0.345 0.002,0.017 0.019,0.035 0.033,0.047 0.012,0.01 0.031,0.01 0.074,0.022 2.099,-1.212 4.213,-2.434 6.303,-3.641 0,0 0,-7.446 0,-7.446 z M 0,0 m 4.762,-0.79 c 1.002,0.596 1.97,1.17 2.978,1.77 0,0 0,-7.419 0,-7.419 -2.123,-1.225 -4.238,-2.445 -6.401,-3.694 0,0 0,4.043 0,4.043 0.579,0.335 1.151,0.665 1.72,0.996 0.568,0.331 1.135,0.663 1.703,0.994 0,0 0,3.31 0,3.31 z M 0,0 M 4.764,3.923 C 5.571,3.463 6.292,3.074 7.061,2.582 6.274,2.113 5.57,1.695 4.844,1.263 4.801,1.384 4.767,1.436 4.767,1.488 4.763,2.262 4.764,3.036 4.764,3.923 Z M 0,0 m -0.436,-7.117 c 0,0 0,-1.093 0,-1.093 -0.334,0.202 -0.612,0.368 -0.929,0.56 0.338,0.194 0.604,0.346 0.929,0.533 z" />
      </g>
    </g>
    <g
       transform="matrix(0.396875,0,0,0.396875,-23.04634,24.83112)"
       id="g3909"
       style="display:block;opacity:0.77600002">
      <g
         id="g3899"
         transform="translate(427.201,33.688)"
         style="opacity:1">
        <path
           id="path3895"
           style="display:block;fill:#461b37;fill-opacity:1"
           d="m 0,0 m 67.374,25.414 c 0,0 -134.746,0 -134.746,0 -0.382,0 -0.692,-0.309 -0.692,-0.691 0,0 0,-49.446 0,-49.446 0,-0.382 0.31,-0.691 0.692,-0.691 0,0 134.746,0 134.746,0 0.382,0 0.689,0.309 0.689,0.691 0,0 0,49.446 0,49.446 0,0.382 -0.307,0.691 -0.689,0.691 z" />
        <path
           id="path3897"
           style="display:block;fill:url(#linearGradient4051);fill-opacity:1"
           d="m 0,0 m 67.374,25.414 c 0,0 -134.746,0 -134.746,0 -0.382,0 -0.692,-0.309 -0.692,-0.691 0,0 0,-49.446 0,-49.446 0,-0.382 0.31,-0.691 0.692,-0.691 0,0 134.746,0 134.746,0 0.382,0 0.689,0.309 0.689,0.691 0,0 0,49.446 0,49.446 0,0.382 -0.307,0.691 -0.689,0.691 z" />
      </g>
      <g
         id="g3903"
         transform="translate(383.428,32.521)"
         style="opacity:1">
        <path
           id="path3901"
           style="display:block;fill:#ffffff;fill-opacity:1"
           d="m 0,0 m 0.034,-15.911 c 0.316,0 0.632,0.066 0.925,0.201 0,0 11.404,5.432 11.404,5.432 0.586,0.293 1.037,0.834 1.172,1.465 0,0 2.817,12.239 2.817,12.239 0.159,0.654 0,1.331 -0.427,1.849 0,0 -7.889,9.804 -7.889,9.804 -0.406,0.518 -1.037,0.811 -1.69,0.811 0,0 -12.645,0 -12.645,0 -0.653,0 -1.284,-0.293 -1.69,-0.811 0,0 -7.889,-9.804 -7.889,-9.804 -0.405,-0.518 -0.564,-1.195 -0.428,-1.849 0,0 2.818,-12.239 2.818,-12.239 0.157,-0.654 0.585,-1.195 1.171,-1.465 0,0 11.405,-5.454 11.405,-5.454 0.293,-0.113 0.631,-0.179 0.946,-0.179 z M 0,0 m 0.034,-16.972 c 0,0 0,0 0,0 -0.473,0 -0.946,0.113 -1.396,0.316 0,0 -11.406,5.454 -11.406,5.454 -0.901,0.428 -1.532,1.217 -1.758,2.186 0,0 -2.817,12.24 -2.817,12.24 -0.226,0.969 0,1.961 0.631,2.749 0,0 7.889,9.805 7.889,9.805 0.608,0.766 1.533,1.194 2.502,1.194 0,0 12.644,0 12.644,0 0.969,0 1.893,-0.428 2.502,-1.194 0,0 7.888,-9.805 7.888,-9.805 0.632,-0.766 0.856,-1.78 0.632,-2.749 0,0 -2.818,-12.24 -2.818,-12.24 -0.225,-0.969 -0.856,-1.758 -1.759,-2.186 0,0 -11.359,-5.454 -11.359,-5.454 -0.428,-0.203 -0.901,-0.316 -1.375,-0.316 z" />
      </g>
      <g
         id="g3907"
         transform="translate(383.507,32.431)"
         style="opacity:1">
        <path
           id="path3905"
           style="display:block;fill:#ffffff;fill-opacity:1"
           d="m 0,0 m 11.383,2.547 c 0,0 0,0 0,0 -0.022,0 -0.022,0 0,0 0,0 -0.022,0 -0.022,0 -0.023,0 -0.045,0 -0.045,-0.023 -0.046,0 -0.091,-0.022 -0.136,-0.022 -0.157,-0.022 -0.293,-0.045 -0.428,-0.045 -0.068,0 -0.136,0 -0.225,-0.022 0,0 -0.023,0 -0.023,0 C 10.031,2.389 9.648,2.344 9.286,2.231 9.129,2.164 9.084,2.074 9.039,1.983 9.039,1.961 9.016,1.961 9.016,1.939 c 0,0 -0.293,-0.09 -0.293,-0.09 C 8.859,0.812 8.814,-0.27 8.566,-1.33 8.318,-2.389 7.89,-3.38 7.303,-4.282 c 0,0 0.226,-0.203 0.226,-0.203 0,0 0,-0.045 0,-0.045 0,-0.113 0.022,-0.225 0.113,-0.338 C 7.912,-5.116 8.25,-5.319 8.656,-5.567 8.723,-5.612 8.791,-5.634 8.859,-5.68 8.993,-5.747 9.107,-5.815 9.242,-5.905 9.264,-5.927 9.31,-5.95 9.355,-5.995 9.377,-6.018 9.4,-6.018 9.4,-6.04 9.715,-6.311 9.783,-6.761 9.557,-7.054 9.445,-7.212 9.242,-7.302 9.039,-7.302 8.859,-7.302 8.7,-7.235 8.543,-7.122 8.521,-7.1 8.52,-7.1 8.497,-7.077 c -0.046,0.023 -0.067,0.068 -0.112,0.09 -0.112,0.113 -0.202,0.203 -0.293,0.316 -0.045,0.045 -0.09,0.112 -0.157,0.157 -0.316,0.339 -0.609,0.609 -0.902,0.812 -0.068,0.045 -0.136,0.068 -0.204,0.068 -0.045,0 -0.089,0 -0.134,-0.023 0,0 -0.045,0 -0.045,0 0,0 -0.271,0.18 -0.271,0.18 C 6.086,-5.792 5.77,-6.062 5.454,-6.333 4.102,-7.393 2.456,-8.046 0.743,-8.204 c 0,0 -0.021,-0.293 -0.021,-0.293 0,0 -0.045,-0.045 -0.045,-0.045 -0.067,-0.067 -0.158,-0.135 -0.181,-0.293 -0.022,-0.36 0.023,-0.766 0.069,-1.217 0,0 0,-0.023 0,-0.023 0,-0.067 0.022,-0.157 0.045,-0.225 0.022,-0.135 0.045,-0.27 0.067,-0.428 0,0 0,-0.135 0,-0.135 0,0 0,-0.068 0,-0.068 0,-0.406 -0.315,-0.744 -0.698,-0.744 -0.181,0 -0.362,0.091 -0.496,0.226 -0.136,0.135 -0.203,0.315 -0.203,0.518 0,0 0,0.045 0,0.045 0,0 0,0.136 0,0.136 0,0.157 0.022,0.293 0.067,0.428 0.022,0.067 0.022,0.135 0.046,0.225 0,0 0,0.022 0,0.022 0.045,0.451 0.112,0.857 0.067,1.218 -0.022,0.157 -0.113,0.225 -0.18,0.293 0,0 -0.045,0.044 -0.045,0.044 0,0 -0.023,0.293 -0.023,0.293 -0.406,0.046 -0.811,0.091 -1.217,0.181 -1.736,0.383 -3.268,1.262 -4.462,2.524 0,0 -0.226,-0.158 -0.226,-0.158 0,0 -0.045,0 -0.045,0 -0.045,0 -0.09,0.023 -0.136,0.023 -0.067,0 -0.135,-0.023 -0.202,-0.068 -0.293,-0.202 -0.586,-0.495 -0.902,-0.834 -0.045,-0.044 -0.09,-0.112 -0.157,-0.157 -0.09,-0.113 -0.181,-0.203 -0.293,-0.316 -0.023,-0.022 -0.068,-0.045 -0.114,-0.09 -0.022,-0.023 -0.045,-0.023 -0.045,-0.045 -0.134,-0.113 -0.315,-0.18 -0.495,-0.18 -0.203,0 -0.406,0.09 -0.518,0.247 -0.226,0.293 -0.159,0.745 0.157,1.015 0.022,0 0.022,0.023 0.045,0.023 0.046,0.022 0.068,0.067 0.113,0.089 0.135,0.091 0.248,0.158 0.383,0.226 0.067,0.022 0.136,0.067 0.203,0.113 0.405,0.247 0.744,0.45 1.015,0.698 0.112,0.113 0.112,0.226 0.112,0.338 0,0 0,0.045 0,0.045 0,0 0.226,0.203 0.226,0.203 -0.045,0.068 -0.091,0.113 -0.114,0.181 -1.127,1.78 -1.554,3.876 -1.261,5.95 0,0 -0.293,0.09 -0.293,0.09 0,0.023 -0.023,0.023 -0.023,0.045 -0.045,0.09 -0.113,0.18 -0.248,0.248 -0.338,0.113 -0.744,0.158 -1.217,0.203 0,0 -0.023,0 -0.023,0 -0.067,0 -0.157,0 -0.225,0.022 -0.135,0 -0.27,0.023 -0.428,0.046 -0.045,0 -0.09,0.022 -0.135,0.022 -0.023,0 -0.045,0 -0.069,0.023 -0.405,0.09 -0.653,0.473 -0.585,0.834 0.068,0.315 0.361,0.518 0.721,0.518 0.068,0 0.113,0 0.181,-0.023 0.022,0 0.045,0 0.045,-0.022 0.045,0 0.09,-0.023 0.135,-0.023 0.158,-0.045 0.27,-0.09 0.406,-0.158 0.067,-0.022 0.135,-0.067 0.202,-0.09 0,0 0.022,0 0.022,0 0.429,-0.158 0.812,-0.293 1.173,-0.338 0,0 0.045,0 0.045,0 0.135,0 0.226,0.068 0.293,0.113 0.023,0 0.023,0.023 0.045,0.023 0,0 0.315,-0.045 0.315,-0.045 0.542,1.667 1.579,3.155 2.953,4.236 0.316,0.248 0.631,0.452 0.969,0.654 0,0 -0.135,0.293 -0.135,0.293 0,0.023 0.023,0.023 0.023,0.045 0.045,0.09 0.09,0.203 0.045,0.361 -0.136,0.338 -0.339,0.676 -0.586,1.059 0,0 0,0.023 0,0.023 -0.046,0.067 -0.091,0.112 -0.136,0.18 -0.09,0.113 -0.157,0.226 -0.248,0.36 -0.022,0.023 -0.045,0.068 -0.067,0.113 0,0.023 -0.023,0.046 -0.023,0.046 -0.18,0.383 -0.045,0.811 0.293,0.968 0.09,0.046 0.181,0.068 0.271,0.068 0.27,0 0.541,-0.18 0.676,-0.428 0,-0.022 0.022,-0.045 0.022,-0.045 0.023,-0.045 0.046,-0.09 0.068,-0.113 0.068,-0.157 0.09,-0.27 0.135,-0.405 0.023,-0.068 0.045,-0.136 0.068,-0.204 0.158,-0.45 0.27,-0.811 0.473,-1.126 0.09,-0.135 0.203,-0.158 0.293,-0.203 0.023,0 0.023,0 0.045,-0.023 0,0 0.158,-0.293 0.158,-0.293 0.992,0.384 2.074,0.586 3.156,0.586 0.653,0 1.33,-0.067 1.961,-0.225 0.405,-0.09 0.789,-0.203 1.171,-0.338 0,0 0.135,0.248 0.135,0.248 0.024,0 0.024,0 0.046,0.022 0.112,0.023 0.201,0.068 0.292,0.203 0.18,0.316 0.317,0.699 0.474,1.127 0,0 0,0.022 0,0.022 0.022,0.068 0.045,0.136 0.068,0.204 0.045,0.135 0.067,0.27 0.135,0.405 0.022,0.045 0.045,0.068 0.067,0.113 0,0.023 0.023,0.045 0.023,0.045 0.135,0.271 0.406,0.428 0.676,0.428 0.09,0 0.18,-0.022 0.271,-0.068 0.157,-0.089 0.293,-0.225 0.338,-0.405 0.045,-0.18 0.045,-0.383 -0.045,-0.563 0,-0.023 -0.023,-0.023 -0.023,-0.046 C 5.636,10.548 5.613,10.503 5.59,10.48 5.523,10.346 5.432,10.233 5.342,10.12 5.296,10.052 5.252,10.007 5.207,9.94 c 0,0 0,-0.023 0,-0.023 C 4.959,9.534 4.734,9.196 4.621,8.858 4.576,8.7 4.621,8.61 4.644,8.497 c 0,-0.022 0.022,-0.022 0.022,-0.045 0,0 -0.112,-0.27 -0.112,-0.27 C 5.748,7.483 6.763,6.491 7.529,5.274 7.935,4.643 8.25,3.944 8.476,3.246 c 0,0 0.27,0.045 0.27,0.045 0.023,0 0.023,-0.022 0.045,-0.022 0.09,-0.046 0.158,-0.113 0.293,-0.113 0,0 0.045,0 0.045,0 0.361,0.045 0.744,0.18 1.172,0.338 0,0 0.023,0 0.023,0 0.067,0.022 0.135,0.068 0.203,0.09 0.134,0.067 0.248,0.113 0.405,0.158 0.045,0 0.091,0.022 0.136,0.022 0.022,0 0.045,0 0.067,0.023 0.067,0.022 0.112,0.022 0.181,0.022 0.338,0 0.631,-0.225 0.72,-0.518 0,-0.27 -0.248,-0.631 -0.653,-0.744 z M 0,0 m 0.948,1.443 c 0,0 -0.994,0.473 -0.994,0.473 0,0 -0.99,-0.473 -0.99,-0.473 0,0 -0.248,-1.06 -0.248,-1.06 0,0 0.677,-0.856 0.677,-0.856 0,0 1.103,0 1.103,0 0,0 0.677,0.856 0.677,0.856 0,0 -0.225,1.06 -0.225,1.06 z M 0,0 m 6.829,-0.901 c 0.18,0.766 0.227,1.532 0.159,2.276 0,0 -3.449,-0.992 -3.449,-0.992 -0.315,-0.09 -0.496,-0.405 -0.427,-0.721 0.022,-0.09 0.067,-0.18 0.134,-0.248 0,0 2.728,-2.456 2.728,-2.456 0.383,0.63 0.675,1.352 0.855,2.141 z M 0,0 m 4.892,-4.395 c 0,0 -2.953,2.096 -2.953,2.096 -0.247,0.158 -0.586,0.113 -0.788,-0.135 -0.069,-0.067 -0.092,-0.158 -0.115,-0.248 0,0 -0.201,-3.673 -0.201,-3.673 1.555,0.18 2.975,0.878 4.057,1.96 z M 0,0 m -1.645,-6.243 c 0.248,-0.045 0.474,-0.09 0.721,-0.135 0,0 -0.202,3.606 -0.202,3.606 -0.022,0.315 -0.27,0.586 -0.608,0.586 -0.091,0 -0.203,-0.022 -0.271,-0.067 0,0 -2.998,-2.142 -2.998,-2.142 0.924,-0.924 2.073,-1.555 3.358,-1.848 z M 0,0 m -6.085,-3.042 c 0,0 2.683,2.389 2.683,2.389 0.248,0.202 0.27,0.586 0.067,0.834 -0.067,0.09 -0.158,0.157 -0.27,0.18 0,0 -3.493,1.014 -3.493,1.014 -0.136,-1.533 0.202,-3.088 1.013,-4.417 z M 0,0 m -6.693,3.065 c 0,0 3.584,-0.608 3.584,-0.608 0.293,-0.022 0.563,0.18 0.631,0.473 0.022,0.135 0.022,0.248 -0.023,0.361 0,0 -1.375,3.313 -1.375,3.313 C -5.137,5.793 -6.152,4.553 -6.693,3.065 Z M 0,0 m 1.533,7.551 c -0.518,0.113 -1.038,0.18 -1.579,0.18 -0.788,0 -1.553,-0.135 -2.275,-0.36 0,0 1.781,-3.224 1.781,-3.224 0.18,-0.203 0.473,-0.292 0.721,-0.157 0.113,0.067 0.203,0.157 0.27,0.247 0,0 1.736,3.134 1.736,3.134 C 1.985,7.438 1.759,7.483 1.533,7.551 Z M 0,0 M 5.929,4.418 C 5.366,5.319 4.621,6.041 3.765,6.604 c 0,0 -1.42,-3.403 -1.42,-3.403 C 2.278,2.93 2.39,2.637 2.66,2.502 2.75,2.457 2.864,2.435 2.976,2.435 c 0,0 3.606,0.608 3.606,0.608 C 6.447,3.539 6.222,3.99 5.929,4.418 Z" />
      </g>
    </g>
    <g
       transform="matrix(0.396875,0,0,0.396875,-23.04634,24.83112)"
       id="g3933"
       style="display:block;opacity:0.77600002">
      <g
         id="g3915"
         transform="translate(427.201,183.586)"
         style="opacity:1">
        <path
           id="path3911"
           style="display:block;fill:#461b37;fill-opacity:1"
           d="m 0,0 m 67.374,25.414 c 0,0 -134.746,0 -134.746,0 -0.382,0 -0.692,-0.31 -0.692,-0.69 0,0 0,-49.447 0,-49.447 0,-0.382 0.31,-0.691 0.692,-0.691 0,0 134.746,0 134.746,0 0.382,0 0.689,0.309 0.689,0.691 0,0 0,49.447 0,49.447 0,0.38 -0.307,0.69 -0.689,0.69 z" />
        <path
           id="path3913"
           style="display:block;fill:url(#linearGradient4053);fill-opacity:1"
           d="m 0,0 m 67.374,25.414 c 0,0 -134.746,0 -134.746,0 -0.382,0 -0.692,-0.31 -0.692,-0.69 0,0 0,-49.447 0,-49.447 0,-0.382 0.31,-0.691 0.692,-0.691 0,0 134.746,0 134.746,0 0.382,0 0.689,0.309 0.689,0.691 0,0 0,49.447 0,49.447 0,0.38 -0.307,0.69 -0.689,0.69 z" />
      </g>
      <g
         id="g3919"
         transform="translate(383.429,175.127)"
         style="opacity:1">
        <path
           id="path3917"
           style="display:block;fill:#ffffff;fill-opacity:1"
           d="m 0,0 m 10.23,-3.87 c 0,0 -20.459,0 -20.459,0 -1.314,0 -2.38,1.065 -2.38,2.38 0,0 0,5.36 0,5.36 0,0 5.636,0 5.636,0 0,0 0,-0.913 0,-0.913 0,-0.726 0.589,-1.316 1.315,-1.316 0,0 11.314,0 11.314,0 0.727,0 1.317,0.59 1.317,1.316 0,0 0,0.913 0,0.913 0,0 5.636,0 5.636,0 0,0 0,-5.36 0,-5.36 0,-1.315 -1.065,-2.38 -2.379,-2.38 z" />
      </g>
      <g
         id="g3923"
         transform="translate(393.219,183.586)"
         style="opacity:1">
        <path
           id="path3921"
           style="display:block;fill:#ffffff;fill-opacity:1"
           d="m 0,0 m -2.818,2.86 c 0,0 5.637,0 5.637,0 0,0 0,-5.721 0,-5.721 0,0 -5.637,0 -5.637,0 0,0 0,5.721 0,5.721 z" />
      </g>
      <g
         id="g3927"
         transform="translate(383.429,192.045)"
         style="opacity:1">
        <path
           id="path3925"
           style="display:block;fill:#ffffff;fill-opacity:1"
           d="m 0,0 m 6.973,-2.957 c 0,0.728 -0.59,1.316 -1.317,1.316 0,0 -11.314,0 -11.314,0 -0.726,0 -1.315,-0.588 -1.315,-1.316 0,0 0,-0.913 0,-0.913 0,0 -5.636,0 -5.636,0 0,0 0,5.361 0,5.361 0,1.315 1.064,2.379 2.379,2.379 0,0 20.459,0 20.459,0 1.314,0 2.38,-1.064 2.38,-2.379 0,0 0,-5.361 0,-5.361 0,0 -5.636,0 -5.636,0 0,0 0,0.913 0,0.913 z" />
      </g>
      <g
         id="g3931"
         transform="translate(373.638,183.587)"
         style="opacity:1">
        <path
           id="path3929"
           style="display:block;fill:#ffffff;fill-opacity:1"
           d="m 0,0 m 2.818,-2.861 c 0,0 -5.637,0 -5.637,0 0,0 0,5.722 0,5.722 0,0 5.637,0 5.637,0 0,0 0,-5.722 0,-5.722 z" />
      </g>
    </g>
    <g
       id="g3937"
       style="font-style:normal;font-weight:700;font-size:15px;font-family:'Exo 2';display:block;opacity:1;fill:#ffffff"
       transform="matrix(0.396875,0,0,0.396875,137.88648,40.260429)"
       font-weight="700"
       font-style="normal"
       font-size="15">
      <path
         id="path3935"
         style="display:inherit;stroke-linecap:butt;stroke-linejoin:round;stroke-miterlimit:4"
         d="m 4.1391,-4.59225 c 0,0 2.74935,4.59225 2.74935,4.59225 0,0 2.568,0 2.568,0 0,0 -2.74935,-4.45635 -2.74935,-4.45635 -0.2115,-0.3474 -0.57405,-0.70995 -0.87615,-0.92145 0,0 0,-0.06045 0,-0.06045 0.3021,-0.22665 0.5439,-0.45315 0.7554,-0.83085 0,0 2.6889,-4.15425 2.6889,-4.15425 0,0 -2.49255,0 -2.49255,0 0,0 -2.65875,4.18455 -2.65875,4.18455 0,0 -0.87615,0 -0.87615,0 0.0756,-0.40785 0.10575,-0.83085 0.10575,-1.2387 0,0 0,-2.94585 0,-2.94585 0,0 -2.29605,0 -2.29605,0 0,0 0,10.42335 0,10.42335 0,0 2.29605,0 2.29605,0 0,0 0,-3.59535 0,-3.59535 0,-0.3021 -0.0453,-0.6495 -0.10575,-0.9969 0,0 0.8913,0 0.8913,0 z m 13.31715,-2.8551 c 0,0 -2.22075,0 -2.22075,0 0,0 0,5.15115 0,5.15115 -0.78555,0.423 -1.3143,0.61935 -1.85805,0.61935 -0.6042,0 -0.8157,-0.22665 -0.80055,-0.87615 0,0 0,-4.89435 0,-4.89435 0,0 -2.23575,0 -2.23575,0 0,0 0,5.57415 0,5.57415 0,1.3746 0.70995,2.06955 2.0997,2.06955 1.0725,0 2.05455,-0.3927 3.08175,-1.22355 0,0 0.1662,1.0272 0.1662,1.0272 0,0 1.76745,0 1.76745,0 0,0 0,-7.44735 0,-7.44735 z m 6.44805,-0.2115 c -0.9819,0 -1.93365,0.4683 -2.65875,1.22355 0.1662,-0.5589 0.2115,-1.14795 0.2115,-1.7673 0,0 -0.015,-2.3718 -0.015,-2.3718 0,0 -2.23575,0 -2.23575,0 0,0 0,10.1817 0,10.1817 0.92145,0.3927 2.73405,0.5739 3.79155,0.5739 2.97585,0 3.64065,-1.69185 3.64065,-3.9729 0,-2.7645 -0.8157,-3.86715 -2.7342,-3.86715 z m -0.95175,6.1785 c -0.423,0.01515 -1.01205,-0.03015 -1.5105,-0.15105 0,0 -0.01515,-3.6105 -0.01515,-3.6105 0.5589,-0.36255 0.9969,-0.63435 1.5861,-0.63435 1.1028,0 1.3293,0.4833 1.3293,2.0997 0,1.76745 -0.3777,2.26605 -1.38975,2.2962 z m 8.98575,-0.1209 c -1.13295,0 -1.6164,-0.24165 -1.76745,-1.3746 0,0 2.68905,0 2.68905,0 1.6164,0 2.2659,-0.7251 2.2659,-2.0847 -0.01515,-1.707 -0.99705,-2.5983 -3.5349,-2.5983 -2.70405,0 -3.7917,0.99705 -3.7917,3.94275 0,2.74935 1.0575,3.8973 3.8823,3.8973 1.0575,0 2.3718,-0.1359 3.24795,-0.5589 0,0 -0.2115,-1.38975 -0.2115,-1.38975 -1.01205,0.10575 -2.09985,0.1662 -2.77965,0.1662 z M 31.6665,-6.0273 c 0.96675,0 1.26885,0.2415 1.26885,0.93645 0,0.423 -0.09075,0.77055 -0.69495,0.77055 0,0 -2.11485,0 -2.11485,0 0.06045,-1.4049 0.42315,-1.72215 1.54095,-1.707 z m 10.1976,-1.63155 c 0,0 -0.39285,0 -0.39285,0 -0.96675,0 -2.0241,0.4683 -3.02115,1.3143 0,0 -0.19635,-1.1028 -0.19635,-1.1028 0,0 -1.7373,0 -1.7373,0 0,0 0,7.44735 0,7.44735 0,0 2.23575,0 2.23575,0 0,0 0,-5.0757 0,-5.0757 1.01205,-0.3474 1.63155,-0.5136 2.28105,-0.5136 0,0 0.6042,0 0.6042,0 0,0 0.22665,-2.06955 0.22665,-2.06955 z m 6.19365,0 c -1.0725,0 -2.16015,0.4683 -3.18735,1.3143 0,0 -0.1662,-1.1028 -0.1662,-1.1028 0,0 -1.81275,0 -1.81275,0 0,0 0,7.44735 0,7.44735 0,0 2.23575,0 2.23575,0 0,0 -0.01515,-5.09085 -0.01515,-5.09085 0.8913,-0.45315 1.46535,-0.67965 2.0847,-0.67965 0.54375,0 0.7251,0.19635 0.7251,0.87615 0,0 0,4.89435 0,4.89435 0,0 2.2206,0 2.2206,0 0,0 0,-5.5893 0,-5.5893 0,-1.34445 -0.7251,-2.06955 -2.0847,-2.06955 z m 7.64055,6.0576 c -1.13295,0 -1.6164,-0.24165 -1.76745,-1.3746 0,0 2.68905,0 2.68905,0 1.6164,0 2.2659,-0.7251 2.2659,-2.0847 -0.01515,-1.707 -0.99705,-2.5983 -3.5349,-2.5983 -2.70405,0 -3.7917,0.99705 -3.7917,3.94275 0,2.74935 1.0575,3.8973 3.8823,3.8973 1.0575,0 2.3718,-0.1359 3.24795,-0.5589 0,0 -0.2115,-1.38975 -0.2115,-1.38975 -1.01205,0.10575 -2.09985,0.1662 -2.77965,0.1662 z M 55.4265,-6.0273 c 0.96675,0 1.26885,0.2415 1.26885,0.93645 0,0.423 -0.09075,0.77055 -0.69495,0.77055 0,0 -2.11485,0 -2.11485,0 0.06045,-1.4049 0.42315,-1.72215 1.54095,-1.707 z m 7.75035,0.07545 c 0,0 2.06955,0 2.06955,0 0,0 0,-1.4955 0,-1.4955 0,0 -2.06955,0 -2.06955,0 0,0 0,-2.0847 0,-2.0847 0,0 -2.2206,0 -2.2206,0 0,0 0,2.0847 0,2.0847 0,0 -1.3143,0.07545 -1.3143,0.07545 0,0 0,1.42005 0,1.42005 0,0 1.3143,0 1.3143,0 0,0 0,3.98805 0,3.98805 0,1.3596 0.78555,2.145 2.13,2.145 0.52875,0 1.5408,-0.10575 2.0997,-0.3021 0,0 -0.24165,-1.55595 -0.24165,-1.55595 0,0 -0.95175,0 -0.95175,0 -0.6042,0 -0.8157,-0.19635 -0.8157,-0.75525 0,0 0,-3.51975 0,-3.51975 z m 7.08645,4.3506 c -1.13295,0 -1.6164,-0.24165 -1.76745,-1.3746 0,0 2.68905,0 2.68905,0 1.6164,0 2.2659,-0.7251 2.2659,-2.0847 -0.01515,-1.707 -0.99705,-2.5983 -3.5349,-2.5983 -2.70405,0 -3.7917,0.99705 -3.7917,3.94275 0,2.74935 1.0575,3.8973 3.8823,3.8973 1.0575,0 2.3718,-0.1359 3.24795,-0.5589 0,0 -0.2115,-1.38975 -0.2115,-1.38975 -1.01205,0.10575 -2.09985,0.1662 -2.77965,0.1662 z M 69.9915,-6.0273 c 0.96675,0 1.26885,0.2415 1.26885,0.93645 0,0.423 -0.09075,0.77055 -0.69495,0.77055 0,0 -2.11485,0 -2.11485,0 0.06045,-1.4049 0.42315,-1.72215 1.54095,-1.707 z m 7.65975,-1.63155 c -2.32635,0 -3.17235,0.57405 -3.17235,2.13 0,1.17825 0.3927,1.85805 1.81275,2.2659 0,0 1.85805,0.49845 1.85805,0.49845 0.74025,0.2115 1.0575,0.2418 1.0575,0.69495 0,0.48345 -0.3474,0.5589 -1.8732,0.5589 -0.99705,0 -2.0394,0 -2.58315,-0.03015 0,0 -0.1359,1.4502 -0.1359,1.4502 1.43505,0.24165 2.7795,0.2568 3.3384,0.2568 2.40195,0 3.414,-0.43815 3.414,-2.28105 0,-1.29915 -0.57405,-1.81275 -1.8429,-2.1753 0,0 -1.9035,-0.5136 -1.9035,-0.5136 -0.70995,-0.19635 -0.9819,-0.2115 -0.9819,-0.66465 0,-0.49845 0.27195,-0.4986 1.4352,-0.4986 0.9366,0 1.91835,0.01515 2.8701,0.0303 0,0 0.15105,-1.4352 0.15105,-1.4352 -0.92145,-0.1662 -2.37165,-0.2718 -3.44415,-0.28695 z"
         stroke-miterlimit="4" />
    </g>
    <g
       id="g3941"
       style="font-style:normal;font-weight:700;font-size:15px;font-family:'Exo 2';display:block;opacity:1;fill:#ffffff"
       transform="matrix(0.396875,0,0,0.396875,137.88648,99.791679)"
       font-weight="700"
       font-style="normal"
       font-size="15">
      <path
         id="path3939"
         style="display:inherit;stroke-linecap:butt;stroke-linejoin:round;stroke-miterlimit:4"
         d="m 5.1663,-10.6197 c -3.2931,0 -4.45635,1.2237 -4.45635,5.4081 0,4.1844 1.16325,5.40795 4.45635,5.40795 3.2931,0 4.4715,-1.22355 4.4715,-5.40795 0,-4.1844 -1.1784,-5.4081 -4.4715,-5.4081 z m 0,1.85805 c 1.5711,0 2.0394,0.78555 2.0394,3.55005 0,2.7645 -0.4683,3.5499 -2.0394,3.5499 -1.5711,0 -2.03925,-0.7854 -2.03925,-3.5499 0,-2.7645 0.46815,-3.55005 2.03925,-3.55005 z m 10.95495,1.11795 c -1.13295,0 -2.35665,0.54375 -2.96085,1.284 0,0 -0.1662,-1.08765 -0.1662,-1.08765 0,0 -1.81275,0 -1.81275,0 0,0 0,10.3176 0,10.3176 0,0 2.2206,0 2.2206,0 0,0 0,-1.79775 0,-1.79775 0.01515,-0.54375 0,-1.08765 -0.0453,-1.60125 0.69495,0.5136 1.58625,0.7251 2.49255,0.7251 1.8732,0 2.83995,-0.89115 2.83995,-3.852 0,-2.5227 -0.7251,-3.98805 -2.568,-3.98805 z m -1.0272,6.17835 c -0.6345,0 -1.1028,-0.15105 -1.692,-0.3021 0,0 0,-3.414 0,-3.414 0.6798,-0.45315 1.1784,-0.70995 1.8279,-0.70995 0.83085,0 1.1631,0.43815 1.1631,2.23575 0,1.85805 -0.34725,2.1903 -1.299,2.1903 z m 8.90925,-0.1359 c -1.13295,0 -1.6164,-0.24165 -1.76745,-1.3746 0,0 2.68905,0 2.68905,0 1.6164,0 2.2659,-0.7251 2.2659,-2.0847 -0.01515,-1.707 -0.99705,-2.5983 -3.5349,-2.5983 -2.70405,0 -3.7917,0.99705 -3.7917,3.94275 0,2.74935 1.0575,3.8973 3.8823,3.8973 1.0575,0 2.3718,-0.1359 3.24795,-0.5589 0,0 -0.2115,-1.38975 -0.2115,-1.38975 -1.01205,0.10575 -2.09985,0.1662 -2.77965,0.1662 z M 23.7315,-6.0273 c 0.96675,0 1.26885,0.2415 1.26885,0.93645 0,0.423 -0.09075,0.77055 -0.69495,0.77055 0,0 -2.11485,0 -2.11485,0 0.06045,-1.4049 0.42315,-1.72215 1.54095,-1.707 z m 10.01625,-1.63155 c -1.0725,0 -2.16015,0.4683 -3.18735,1.3143 0,0 -0.1662,-1.1028 -0.1662,-1.1028 0,0 -1.81275,0 -1.81275,0 0,0 0,7.44735 0,7.44735 0,0 2.23575,0 2.23575,0 0,0 -0.01515,-5.09085 -0.01515,-5.09085 0.8913,-0.45315 1.46535,-0.67965 2.0847,-0.67965 0.54375,0 0.7251,0.19635 0.7251,0.87615 0,0 0,4.89435 0,4.89435 0,0 2.2206,0 2.2206,0 0,0 0,-5.5893 0,-5.5893 0,-1.34445 -0.7251,-2.06955 -2.0847,-2.06955 z m 7.33845,-2.96085 c -2.6889,0 -3.7917,0.49845 -3.7917,2.88525 0,1.5408 0.5742,2.47755 2.1603,3.0516 0,0 2.0997,0.7401 2.0997,0.7401 0.69495,0.22665 0.9819,0.40785 0.9819,1.1481 0,0.846 -0.33225,1.01205 -1.5408,1.01205 -0.66465,0 -1.51065,-0.03015 -3.4443,-0.07545 0,0 -0.1359,1.6617 -0.1359,1.6617 1.60125,0.3474 2.91555,0.3927 3.5802,0.3927 2.83995,0 3.86715,-0.6345 3.86715,-3.00615 0,-1.5258 -0.54375,-2.47725 -2.20545,-3.06645 0,0 -1.97895,-0.6798 -1.97895,-0.6798 -0.78555,-0.2568 -1.08765,-0.4533 -1.08765,-1.1784 0,-0.8913 0.39285,-0.9516 1.51065,-0.9516 1.1028,0 2.3868,0.01515 3.26295,0.0453 0,0 0.15105,-1.5711 0.15105,-1.5711 -1.16325,-0.3324 -2.40195,-0.40785 -3.42915,-0.40785 z m 8.11065,4.66785 c 0,0 2.06955,0 2.06955,0 0,0 0,-1.4955 0,-1.4955 0,0 -2.06955,0 -2.06955,0 0,0 0,-2.0847 0,-2.0847 0,0 -2.2206,0 -2.2206,0 0,0 0,2.0847 0,2.0847 0,0 -1.3143,0.07545 -1.3143,0.07545 0,0 0,1.42005 0,1.42005 0,0 1.3143,0 1.3143,0 0,0 0,3.98805 0,3.98805 0,1.3596 0.78555,2.145 2.13,2.145 0.52875,0 1.5408,-0.10575 2.0997,-0.3021 0,0 -0.24165,-1.55595 -0.24165,-1.55595 0,0 -0.95175,0 -0.95175,0 -0.6042,0 -0.8157,-0.19635 -0.8157,-0.75525 0,0 0,-3.51975 0,-3.51975 z m 7.13175,-1.707 c -1.04235,0 -2.79465,0.1662 -3.8823,0.36255 0,0 0.2115,1.51065 0.2115,1.51065 1.1934,-0.0756 2.43225,-0.1209 3.1422,-0.1209 0.95175,0 1.2084,0.2115 1.22355,0.96675 0,0 0,0.3324 0,0.3324 0,0 -2.65875,0 -2.65875,0 -1.42005,0 -2.28105,0.69495 -2.28105,1.88835 0,0 0,0.75525 0,0.75525 0,1.38975 1.04235,2.145 2.4321,2.145 1.3143,0 2.2206,-0.6948 2.74935,-1.31415 0,0 0.22665,1.13295 0.22665,1.13295 0,0 1.76745,0 1.76745,0 0,0 0,-4.92465 0,-4.92465 0,-2.0997 -1.0122,-2.7342 -2.9307,-2.7342 z M 54.28935,-2.553 c 0,-0.423 0.18135,-0.6948 0.7251,-0.70995 0,0 2.0091,0 2.0091,0 0,0 0,1.04235 0,1.04235 -0.6345,0.48345 -1.34445,0.7251 -1.85805,0.7251 -0.6042,0 -0.87615,-0.24165 -0.87615,-0.7704 0,0 0,-0.2871 0,-0.2871 z m 10.1214,-5.10585 c -2.74935,0 -3.76155,1.04235 -3.76155,3.9276 0,2.87025 0.99705,3.91245 3.73125,3.91245 1.01205,0 2.08455,-0.15105 2.88525,-0.49845 0,0 -0.19635,-1.4502 -0.19635,-1.4502 -0.861,0.1209 -1.81275,0.13605 -2.28105,0.13605 -1.34445,0 -1.7976,-0.4533 -1.7976,-2.09985 0,-1.64655 0.45315,-2.0997 1.7976,-2.0997 0.5589,0 1.3143,0.015 2.13,0.03015 0,0 0.24165,-1.38975 0.24165,-1.38975 -0.8157,-0.36255 -1.9788,-0.4683 -2.7492,-0.4683 z m 6.88065,4.19955 c 0,0 2.0997,3.4593 2.0997,3.4593 0,0 2.5077,0 2.5077,0 0,0 -2.19045,-3.3234 -2.19045,-3.3234 -0.1812,-0.31725 -0.51375,-0.67965 -0.69495,-0.80055 0,0 0,-0.0303 0,-0.0303 0.1812,-0.1209 0.51375,-0.40785 0.69495,-0.70995 0,0 1.9335,-2.58315 1.9335,-2.58315 0,0 -2.50755,0 -2.50755,0 0,0 -1.8429,2.5983 -1.8429,2.5983 0,0 -0.69495,0 -0.69495,0 0.0756,-0.43815 0.10575,-0.8913 0.10575,-1.3596 0,0 0,-4.36575 0,-4.36575 0,0 -2.23575,0 -2.23575,0 0,0 0,10.5744 0,10.5744 0,0 2.23575,0 2.23575,0 0,0 0,-2.3415 0,-2.3415 0,-0.3324 -0.0453,-0.7251 -0.10575,-1.1178 0,0 0.69495,0 0.69495,0 z"
         stroke-miterlimit="4" />
    </g>
    <g
       transform="matrix(0.396875,0,0,0.396875,-19.845145,26.046375)"
       id="g3821"
       style="display:block;opacity:0.77600002">
      <g
         id="g3819"
         transform="translate(27.141,106.369)"
         style="opacity:1">
        <path
           id="path3817"
           style="display:block;fill:#116666;fill-opacity:1"
           d="m 0,0 m 10,10.556 c 0,0 -4.494,-0.979 -4.494,-5.27 0,-3.768 1.847,-5.096 2.56,-6.012 0,0 1.464,-1.173 0.484,-4.957 1.634,-2.074 1.941,-5.739 0.164,-9.62 -1.115,-2.436 -2.101,-3.771 -3.602,-4.547 -1.103,-0.57 -2.353,-0.781 -3.57,-0.781 -2.267,0 -4.417,0.734 -5.274,1.248 -2.51,1.029 -4.198,1.977 -5.78,5.589 -1.283,2.932 0.262,6.327 1.066,7.982 -0.98,3.785 0.38,5.086 0.38,5.086 0.713,0.916 2.56,2.244 2.56,6.012 0,4.291 -4.494,5.27 -4.494,5.27 -2.855,0.937 -8.812,2.856 -8.812,9.044 0,0 0,1.031 1.107,1.031 0,0 35.41,0 35.41,0 1.107,0 1.107,-1.031 1.107,-1.031 0,-6.188 -5.957,-8.107 -8.812,-9.044 z" />
      </g>
    </g>
    <g
       style="opacity:0.77600002"
       transform="matrix(1.5,0,0,1.5,-44.092517,-1.2995143)"
       id="g4198">
      <g
         style="display:block;opacity:1"
         id="g3861"
         transform="matrix(0.26458333,0,0,0.26458333,9.062844,16.48485)">
        <g
           style="opacity:1"
           transform="translate(185.008,108.637)"
           id="g3855">
          <path
             d="m 0,0 m 0,-27.971 c 0,0 -24.224,13.985 -24.224,13.985 0,0 0,27.972 0,27.972 0,0 24.224,13.985 24.224,13.985 0,0 24.224,-13.985 24.224,-13.985 0,0 0,-27.972 0,-27.972 0,0 -24.224,-13.985 -24.224,-13.985 z"
             style="display:block;fill:#461b37;fill-opacity:1"
             id="path3851" />
          <path
             d="m 0,0 m 0,-27.971 c 0,0 -24.224,13.985 -24.224,13.985 0,0 0,27.972 0,27.972 0,0 24.224,13.985 24.224,13.985 0,0 24.224,-13.985 24.224,-13.985 0,0 0,-27.972 0,-27.972 0,0 -24.224,-13.985 -24.224,-13.985 z"
             style="display:block;fill:url(#gr_1r7XdYwdoh);fill-opacity:1"
             id="path3853" />
        </g>
        <g
           style="opacity:1"
           transform="translate(185.008,108.474)"
           id="g3859">
          <path
             d="m 0,0 m 5.365,4.532 c 0,0 -1.902,2.491 -1.902,2.491 0,0 -6.925,9.068 -6.925,9.068 0,0 -1.991,2.607 -1.991,2.607 0,0 1.991,-5.36 1.991,-5.36 0,0 3.463,-9.323 3.463,-9.323 0,0 0.173,-0.465 0.173,-0.465 0,0 -0.173,0 -0.173,0 0,0 -3.463,0 -3.463,0 0,0 -6.752,0 -6.752,0 0,0 6.752,-9.749 6.752,-9.749 0,0 6.925,-10 6.925,-10 0,0 1.731,-2.498 1.731,-2.498 0,0 -1.731,4.778 -1.731,4.778 0,0 -4.415,12.188 -4.415,12.188 0,0 0.953,-0.009 0.953,-0.009 0,0 3.462,-0.026 3.462,-0.026 0,0 6.752,-0.052 6.752,-0.052 0,0 -4.85,6.35 -4.85,6.35 z"
             style="display:block;fill:#ffffff;fill-opacity:1"
             id="path3857" />
        </g>
      </g>
    </g>
    <text
       id="text5007"
       y="99.222336"
       x="41.099644"
       style="font-style:normal;font-weight:normal;font-size:15.875px;line-height:0.2;font-family:sans-serif;letter-spacing:0px;word-spacing:0px;opacity:0.77600002;fill:#000000;fill-opacity:1;stroke:none;stroke-width:0.39687496"
       xml:space="preserve"><tspan
         id="tspan5013"
         style="font-style:normal;font-variant:normal;font-weight:normal;font-stretch:normal;font-size:5.82083321px;line-height:0.2;font-family:FreeSans;-inkscape-font-specification:FreeSans;stroke-width:0.39687496"
         y="104.93362"
         x="41.099644" /></text>
    <g
       transform="translate(0.56696428,-4.7247023)"
       id="text5037"
       style="font-style:normal;font-weight:normal;font-size:15.875px;line-height:0.2;font-family:sans-serif;letter-spacing:0px;word-spacing:0px;opacity:0.77600002;fill:#471c38;fill-opacity:1;stroke:none;stroke-width:0.39687496"
       aria-label="create coockiecutter 
template">
      <path
         d="m 16.865234,54.578125 v 3.457031 h 0.417969 v -0.818359 c 0,-0.123473 -0.0086,-0.253369 -0.02344,-0.386719 h 0.326172 l 0.833984,1.205078 h 0.488281 L 18.074219,56.880859 C 18.029769,56.806779 17.9507,56.722072 17.90625,56.6875 v -0.0098 c 0.04445,-0.02963 0.123519,-0.102842 0.167969,-0.162109 l 0.755859,-0.884766 h -0.488281 l -0.761719,0.894532 h -0.316406 c 0.01482,-0.13335 0.02539,-0.26199 0.02539,-0.410157 l -0.0059,-1.537109 z m 2.644532,0.0293 c -0.08396,0 -0.126953,0.04989 -0.126954,0.128906 v 0.28125 c 0,0.0889 0.04299,0.128906 0.126954,0.128906 h 0.197265 c 0.0889,0 0.128907,-0.04001 0.128907,-0.128906 v -0.28125 c 0,-0.07902 -0.04001,-0.128906 -0.128907,-0.128906 z m -18.494141,0.3125 v 0.710937 l -0.43554688,0.02539 v 0.304688 H 1.015625 v 1.466796 c 0,0.419806 0.2121986,0.652344 0.6171875,0.652344 0.1185333,0 0.3849242,-0.01999 0.5429687,-0.06445 L 2.1269531,57.695312 H 1.7597656 c -0.2370667,0 -0.3242187,-0.08818 -0.3242187,-0.320312 v -1.414062 h 0.765625 v -0.330079 h -0.765625 v -0.710937 z m 27.654297,0 v 0.710937 l -0.433594,0.02539 v 0.304688 h 0.433594 v 1.466796 c 0,0.419806 0.214151,0.652344 0.61914,0.652344 0.118533,0 0.384924,-0.01999 0.542969,-0.06445 l -0.05078,-0.320313 h -0.365234 c -0.237067,0 -0.326172,-0.08818 -0.326172,-0.320312 v -1.414062 h 0.765625 v -0.330079 h -0.765625 v -0.710937 z m 1.882812,0 v 0.710937 l -0.435546,0.02539 v 0.304688 h 0.435546 v 1.466796 c 0,0.419806 0.212199,0.652344 0.617188,0.652344 0.118533,0 0.384924,-0.01999 0.542969,-0.06445 l -0.05078,-0.320313 h -0.365234 c -0.237066,0 -0.326172,-0.08818 -0.326172,-0.320312 v -1.414062 h 0.765625 v -0.330079 h -0.765625 v -0.710937 z m -38.3789059,0.652344 c -0.8346723,0 -1.1445312,0.329301 -1.1445312,1.257812 0,0.928512 0.3108916,1.265625 1.140625,1.265625 0.2815166,0 0.5822132,-0.03909 0.8242187,-0.123047 l -0.044922,-0.283203 c -0.2469445,0.03951 -0.5618504,0.05078 -0.7050782,0.05078 -0.5729111,0 -0.7714844,-0.203894 -0.7714844,-0.910156 0,-0.701322 0.1985733,-0.902344 0.7714844,-0.902344 0.1679222,0 0.4350326,0.0096 0.6523438,0.0293 l 0.052734,-0.271484 c -0.2370667,-0.0889 -0.5630185,-0.113281 -0.7753907,-0.113281 z m 2.7832031,0 c -0.3259667,0 -0.6816215,0.162875 -1.0273437,0.439453 l -0.044922,-0.38086 h -0.3261718 v 2.404297 h 0.4199218 v -1.761718 c 0.3802944,-0.192617 0.6267986,-0.306641 0.8984375,-0.306641 h 0.1386719 l 0.048828,-0.394531 z m 1.5,0 c -0.7754056,0 -1.1074218,0.310579 -1.1074218,1.253906 0,0.923573 0.3226103,1.269531 1.1523437,1.269531 0.2765778,0 0.7044517,-0.04093 0.9316407,-0.134765 l -0.042969,-0.28125 c -0.2469444,0.03457 -0.5791153,0.06055 -0.8359375,0.06055 -0.4938889,0 -0.7163483,-0.12826 -0.7558594,-0.701172 h 1.1171875 c 0.40005,0 0.5772046,-0.251957 0.5722656,-0.68164 0,-0.518583 -0.3052332,-0.785156 -1.03125,-0.785156 z m 2.8007813,0 c -0.3605389,0 -0.8292507,0.0531 -1.1601563,0.107422 l 0.039063,0.310546 c 0.3654777,-0.03457 0.7793666,-0.0625 1.03124995,-0.0625 0.38029445,0 0.49023438,0.11773 0.49023437,0.414063 v 0.212891 H -1.3457031 c -0.4198056,0 -0.6660157,0.216441 -0.6660157,0.591796 v 0.261719 c 0,0.434623 0.2910198,0.671875 0.7207032,0.671875 0.44449996,0 0.80450969,-0.250742 0.99218748,-0.443359 l 0.0507812,0.398437 h 0.33007813 v -1.693359 c 0,-0.582789 -0.29081873,-0.769531 -0.82421875,-0.769531 z m 4.4433594,0 c -0.7754056,0 -1.1074219,0.310579 -1.1074219,1.253906 0,0.923573 0.3226103,1.269531 1.1523438,1.269531 0.2765778,0 0.7064048,-0.04093 0.9335937,-0.134765 l -0.044922,-0.28125 c -0.2469444,0.03457 -0.5791153,0.06055 -0.8359375,0.06055 -0.4938889,0 -0.7143951,-0.12826 -0.7539062,-0.701172 h 1.1152343 c 0.4000501,0 0.5772046,-0.251957 0.5722657,-0.68164 0,-0.518583 -0.3052333,-0.785156 -1.03125,-0.785156 z m 3.7910156,0 c -0.8346722,0 -1.1445312,0.329301 -1.1445313,1.257812 0,0.928512 0.3108916,1.265625 1.140625,1.265625 0.2815166,0 0.5822133,-0.03909 0.8242188,-0.123047 l -0.044922,-0.283203 c -0.2469444,0.03951 -0.5618503,0.05078 -0.7050781,0.05078 -0.5729111,0 -0.7714844,-0.203894 -0.7714844,-0.910156 0,-0.701322 0.1985733,-0.902344 0.7714844,-0.902344 0.1679222,0 0.4350326,0.0096 0.6523438,0.0293 l 0.052734,-0.271484 C 8.0305112,55.596657 7.7045598,55.572266 7.4921875,55.572266 Z m 2.3632813,0 c -0.8247945,0 -1.1308594,0.345038 -1.1308594,1.263672 0,0.923572 0.306065,1.263671 1.1308594,1.263671 0.8297332,0 1.1308592,-0.340099 1.1308592,-1.263671 0,-0.918633 -0.301126,-1.263672 -1.1308592,-1.263672 z m 2.8066402,0 c -0.824794,0 -1.130859,0.345038 -1.130859,1.263672 0,0.923572 0.306065,1.263671 1.130859,1.263671 0.829734,0 1.132813,-0.340099 1.132813,-1.263671 0,-0.918633 -0.303079,-1.263672 -1.132813,-1.263672 z m 2.81836,0 c -0.834672,0 -1.146485,0.329301 -1.146485,1.257812 0,0.928512 0.310892,1.265625 1.140625,1.265625 0.281517,0 0.584166,-0.03909 0.826172,-0.123047 l -0.04492,-0.283203 c -0.246945,0.03951 -0.563803,0.05078 -0.707031,0.05078 -0.572911,0 -0.769531,-0.203894 -0.769531,-0.910156 0,-0.701322 0.19662,-0.902344 0.769531,-0.902344 0.167922,0 0.435033,0.0096 0.652344,0.0293 l 0.05469,-0.271484 c -0.237067,-0.0889 -0.563017,-0.113281 -0.77539,-0.113281 z m 6.115234,0 c -0.775406,0 -1.107422,0.310579 -1.107422,1.253906 0,0.923573 0.320658,1.269531 1.150391,1.269531 0.276578,0 0.706405,-0.04093 0.933594,-0.134765 l -0.04492,-0.28125 c -0.246944,0.03457 -0.577163,0.06055 -0.833985,0.06055 -0.493889,0 -0.716348,-0.12826 -0.755859,-0.701172 h 1.117188 c 0.40005,0 0.577204,-0.251957 0.572265,-0.68164 0,-0.518583 -0.305233,-0.785156 -1.03125,-0.785156 z m 2.691406,0 c -0.834672,0 -1.146484,0.329301 -1.146484,1.257812 0,0.928512 0.310891,1.265625 1.140625,1.265625 0.281516,0 0.584167,-0.03909 0.826172,-0.123047 L 25.0625,57.689453 c -0.246944,0.03951 -0.563803,0.05078 -0.707031,0.05078 -0.572911,0 -0.769531,-0.203894 -0.769531,-0.910156 0,-0.701322 0.19662,-0.902344 0.769531,-0.902344 0.167922,0 0.435033,0.0096 0.652343,0.0293 l 0.05469,-0.271484 c -0.237067,-0.0889 -0.563018,-0.113281 -0.775391,-0.113281 z m 8.951172,0 c -0.775405,0 -1.107422,0.310579 -1.107422,1.253906 0,0.923573 0.322611,1.269531 1.152344,1.269531 0.276578,0 0.704452,-0.04093 0.931641,-0.134765 l -0.04297,-0.28125 c -0.246945,0.03457 -0.579115,0.06055 -0.835937,0.06055 -0.49389,0 -0.716349,-0.12826 -0.75586,-0.701172 h 1.117188 c 0.40005,0 0.577204,-0.251957 0.572265,-0.68164 0,-0.518583 -0.305233,-0.785156 -1.03125,-0.785156 z m 3.0625,0 c -0.325967,0 -0.681621,0.162875 -1.027343,0.439453 l -0.04492,-0.38086 h -0.326172 v 2.404297 h 0.419922 v -1.761718 c 0.380295,-0.192617 0.626798,-0.306641 0.898437,-0.306641 h 0.138672 l 0.04883,-0.394531 z m -16.898437,0.05859 v 2.404297 h 0.414062 v -2.404297 z m 6.253906,0 V 57.4375 c 0,0.434622 0.221628,0.662109 0.65625,0.662109 0.345722,0 0.67657,-0.142423 1.037109,-0.414062 l 0.03125,0.349609 h 0.335938 v -2.404297 h -0.419922 v 1.757813 c -0.350661,0.227189 -0.583022,0.345703 -0.839844,0.345703 -0.276578,0 -0.385798,-0.107851 -0.380859,-0.414063 v -1.689453 z m -29.1796875,0.296875 c 0.4296833,0 0.586858,0.123477 0.5917969,0.429688 0,0.1778 -0.044408,0.355469 -0.2617188,0.355469 h -1.0175781 c 0.014817,-0.607483 0.1886722,-0.785157 0.6875,-0.785157 z m 7.2441406,0 c 0.4296833,0 0.586858,0.123477 0.5917969,0.429688 0,0.1778 -0.044408,0.355469 -0.2617188,0.355469 h -1.015625 c 0.014817,-0.607483 0.1867189,-0.785157 0.6855469,-0.785157 z m 6.1347657,0 c 0.5235222,0 0.6972652,0.206881 0.6972652,0.908204 0,0.701323 -0.173743,0.908203 -0.6972652,0.908203 -0.5235223,0 -0.6914063,-0.206881 -0.6914063,-0.908203 0,-0.701322 0.1678841,-0.908204 0.6914063,-0.908204 z m 2.8066402,0 c 0.523523,0 0.697266,0.206881 0.697266,0.908204 0,0.701323 -0.173743,0.908203 -0.697266,0.908203 -0.523522,0 -0.691406,-0.206881 -0.691406,-0.908203 0,-0.701322 0.167884,-0.908204 0.691406,-0.908204 z m 8.953125,0 c 0.429683,0 0.586858,0.123477 0.591797,0.429688 0,0.1778 -0.04441,0.355469 -0.261719,0.355469 h -1.017578 c 0.01482,-0.607483 0.188672,-0.785157 0.6875,-0.785157 z m 11.642578,0 c 0.429683,0 0.586858,0.123477 0.591797,0.429688 0,0.1778 -0.04441,0.355469 -0.261718,0.355469 h -1.017579 c 0.01482,-0.607483 0.188673,-0.785157 0.6875,-0.785157 z m -33.59960888,0.94336 v 0.488281 c -0.28151667,0.246944 -0.62816771,0.366267 -0.86523432,0.361328 -0.2617611,0 -0.3750001,-0.109445 -0.375,-0.361328 v -0.152344 c 0,-0.202495 0.078419,-0.322153 0.3105468,-0.332031 z M 15.474609,59.416016 v 2.888672 c 0,0.39511 0.232291,0.613281 0.587891,0.613281 0.118533,0 0.345614,-0.02 0.439453,-0.06445 l -0.04883,-0.320313 h -0.232422 c -0.212372,0 -0.330078,-0.109894 -0.330078,-0.322265 l 0.0039,-2.794922 z M 3.9238281,59.757812 v 0.710938 l -0.4355469,0.02344 v 0.30664 h 0.4355469 v 1.466797 c 0,0.419806 0.2121986,0.652344 0.6171875,0.652344 0.1185334,0 0.3849244,-0.02 0.5429688,-0.06445 L 5.0351562,62.533203 H 4.6699219 c -0.2370667,0 -0.3261719,-0.09014 -0.3261719,-0.322265 v -1.41211 H 5.109375 V 60.46875 H 4.34375 v -0.710938 z m 15.9062499,0 v 0.710938 l -0.435547,0.02344 v 0.30664 h 0.435547 v 1.466797 c 0,0.419806 0.2122,0.652344 0.617188,0.652344 0.118534,0 0.384924,-0.02 0.542968,-0.06445 l -0.04883,-0.320313 h -0.365234 c -0.237067,0 -0.326172,-0.09014 -0.326172,-0.322265 v -1.41211 h 0.765625 V 60.46875 H 20.25 V 59.757812 Z M 6.609375,60.408203 c -0.7754055,0 -1.1054687,0.312532 -1.1054688,1.255859 0,0.923573 0.3206574,1.269532 1.1503907,1.269532 0.2765778,0 0.7064048,-0.04093 0.9335937,-0.134766 l -0.044922,-0.28125 c -0.2469445,0.03457 -0.5771621,0.05859 -0.8339844,0.05859 -0.4938889,0 -0.7163483,-0.128261 -0.7558594,-0.701172 h 1.1152344 c 0.40005,0 0.5772044,-0.251958 0.5722656,-0.681641 0,-0.518583 -0.3052333,-0.785156 -1.03125,-0.785156 z m 3.0175781,0 c -0.3358445,0 -0.6465774,0.148058 -0.9824219,0.439453 L 8.6191406,60.46875 H 8.2734375 v 2.404297 h 0.4199219 v -1.738281 c 0.3704166,-0.2667 0.54901,-0.371094 0.7910156,-0.371094 0.2518833,0 0.375,0.114631 0.375,0.425781 v 1.683594 h 0.40625 v -1.738281 c 0.365478,-0.261761 0.542119,-0.371094 0.789063,-0.371094 0.2667,0 0.370061,0.129448 0.375,0.425781 v 1.683594 h 0.416015 v -1.802735 c 0,-0.434621 -0.227711,-0.662109 -0.642578,-0.662109 -0.321028,0 -0.637845,0.143233 -0.96875,0.429688 -0.06914,-0.286455 -0.2765163,-0.429688 -0.6074219,-0.429688 z m 4.3574219,0 c -0.345723,0 -0.736286,0.168735 -0.998047,0.445313 l -0.03516,-0.384766 h -0.345703 v 3.396484 h 0.419922 v -0.695312 c 0,-0.167923 -8.05e-4,-0.316453 -0.01563,-0.484375 0.281516,0.167922 0.584413,0.248047 0.890625,0.248047 0.617361,0 0.908203,-0.321489 0.908203,-1.25 0,-0.834672 -0.236491,-1.275391 -0.824219,-1.275391 z m 4.087891,0 c -0.360539,0 -0.829251,0.05505 -1.160157,0.109375 l 0.03906,0.310547 c 0.365478,-0.03457 0.78132,-0.06445 1.033203,-0.06445 0.380294,0 0.488281,0.119683 0.488281,0.416016 v 0.21289 h -1.001953 c -0.419806,0 -0.667969,0.216442 -0.667969,0.591797 v 0.261719 c 0,0.434623 0.29102,0.671875 0.720704,0.671875 0.4445,0 0.806462,-0.252696 0.99414,-0.445313 l 0.04883,0.400391 h 0.330078 v -1.693359 c 0,-0.582789 -0.290818,-0.771485 -0.824218,-0.771485 z m 4.443359,0 c -0.775406,0 -1.105469,0.312532 -1.105469,1.255859 0,0.923573 0.320657,1.269532 1.150391,1.269532 0.276577,0 0.706405,-0.04093 0.933594,-0.134766 l -0.04492,-0.28125 c -0.246945,0.03457 -0.577162,0.05859 -0.833985,0.05859 -0.493888,0 -0.716347,-0.128261 -0.755859,-0.701172 h 1.115234 c 0.40005,0 0.579158,-0.251958 0.574219,-0.681641 0,-0.518583 -0.307187,-0.785156 -1.033203,-0.785156 z M 6.6289062,60.763672 c 0.4296833,0 0.5888112,0.123476 0.59375,0.429687 0,0.1778 -0.044408,0.355469 -0.2617187,0.355469 H 5.9433594 c 0.014817,-0.607483 0.1867189,-0.785156 0.6855468,-0.785156 z m 15.9062498,0 c 0.429684,0 0.588811,0.123476 0.59375,0.429687 0,0.1778 -0.04441,0.355469 -0.261718,0.355469 h -1.017579 c 0.01482,-0.607483 0.186719,-0.785156 0.685547,-0.785156 z m -8.689453,0.0098 c 0.380294,0 0.533203,0.228589 0.533203,0.910156 0,0.706261 -0.164178,0.882812 -0.583984,0.882812 -0.256822,0 -0.468259,-0.06356 -0.769531,-0.142578 v -1.283203 c 0.330906,-0.246944 0.558551,-0.367187 0.820312,-0.367187 z m 4.626953,0.933593 v 0.490235 c -0.281517,0.246944 -0.628167,0.364314 -0.865234,0.359375 -0.261761,0 -0.375,-0.107492 -0.375,-0.359375 v -0.154297 c 0,-0.202494 0.08037,-0.3202 0.3125,-0.330078 z"
         id="path5245"
         style="font-style:normal;font-variant:normal;font-weight:normal;font-stretch:normal;font-size:4.93888903px;line-height:0.2;font-family:'Exo 2';-inkscape-font-specification:'Exo 2, Normal';font-variant-ligatures:normal;font-variant-caps:normal;font-variant-numeric:normal;font-feature-settings:normal;text-align:center;writing-mode:lr-tb;text-anchor:middle;fill:#471c38;fill-opacity:1;stroke-width:0.39687496" />
    </g>
    <text
       id="text5205"
       y="97.145088"
       x="44.754818"
       style="font-style:normal;font-weight:normal;font-size:15.875px;line-height:1.25;font-family:sans-serif;letter-spacing:0px;word-spacing:0px;opacity:0.77600002;fill:#000000;fill-opacity:1;stroke:none;stroke-width:0.39687496"
       xml:space="preserve"><tspan
         style="stroke-width:0.39687496"
         y="111.19074"
         x="44.754818"
         id="tspan5203" /></text>
    <g
       id="text5037-7"
       style="font-style:normal;font-variant:normal;font-weight:bold;font-stretch:normal;font-size:5.82083321px;line-height:0.2;font-family:'Exo 2';-inkscape-font-specification:'Exo 2, Bold';font-variant-ligatures:normal;font-variant-caps:normal;font-variant-numeric:normal;font-feature-settings:normal;text-align:center;letter-spacing:0px;word-spacing:0px;writing-mode:lr-tb;text-anchor:middle;opacity:0.77600002;fill:#351c38;fill-opacity:1;stroke:none;stroke-width:0.39687496"
       aria-label="SaltStack">
      <path
         d="m 162.47852,65.339844 c -1.22449,0 -1.72657,0.225591 -1.72657,1.3125 0,0.701675 0.2601,1.129217 0.98243,1.390625 l 0.95703,0.335937 c 0.31644,0.103188 0.44726,0.186359 0.44726,0.523438 0,0.385233 -0.15083,0.460937 -0.70117,0.460937 -0.30268,0 -0.68782,-0.01452 -1.56836,-0.03516 l -0.0625,0.757813 c 0.72919,0.15822 1.32818,0.177734 1.63086,0.177734 1.29329,0 1.75977,-0.289112 1.75977,-1.369141 0,-0.694796 -0.2472,-1.126243 -1.00391,-1.394531 l -0.90039,-0.310547 c -0.35772,-0.116946 -0.4961,-0.206909 -0.49609,-0.537109 0,-0.405871 0.17843,-0.433594 0.6875,-0.433594 0.50218,0 1.08732,0.0077 1.48632,0.02148 l 0.0684,-0.714843 c -0.5297,-0.151341 -1.09276,-0.185547 -1.56054,-0.185547 z m 12.87109,0 c -1.22449,0 -1.72656,0.225591 -1.72656,1.3125 0,0.701675 0.26206,1.129217 0.98437,1.390625 l 0.95508,0.335937 c 0.31644,0.103188 0.44727,0.186359 0.44727,0.523438 0,0.385233 -0.15085,0.460937 -0.70118,0.460937 -0.30269,0 -0.68783,-0.01452 -1.56836,-0.03516 l -0.0625,0.757813 c 0.72919,0.15822 1.32817,0.177734 1.63086,0.177734 1.29328,0 1.75977,-0.289112 1.75977,-1.369141 0,-0.694796 -0.24721,-1.126243 -1.00391,-1.394531 l -0.90039,-0.310547 c -0.35772,-0.116946 -0.49609,-0.206909 -0.49609,-0.537109 0,-0.405871 0.17844,-0.433594 0.6875,-0.433594 0.50218,0 1.08734,0.0077 1.48633,0.02148 l 0.0684,-0.714843 c -0.52969,-0.151341 -1.09276,-0.185547 -1.56055,-0.185547 z m -6.56641,0.01953 v 3.962891 c 0,0.598488 0.37808,0.935547 0.97657,0.935546 0.22013,0 0.63856,-0.04924 0.81054,-0.138671 l -0.11719,-0.707032 h -0.27539 c -0.25452,0 -0.38476,-0.109858 -0.38476,-0.34375 v -3.708984 z m 19.13868,0 v 4.816406 h 1.01757 v -1.066406 c 0,-0.151342 -0.0212,-0.330908 -0.0488,-0.509766 h 0.31641 l 0.95703,1.576172 h 1.14258 l -0.99805,-1.513672 c -0.0825,-0.144462 -0.23385,-0.3102 -0.3164,-0.365234 v -0.01367 c 0.0825,-0.05503 0.23385,-0.186635 0.3164,-0.324219 l 0.88086,-1.175781 h -1.14257 l -0.83985,1.183594 h -0.31641 c 0.0344,-0.199495 0.0488,-0.405886 0.0488,-0.619141 v -1.988281 z m -16.6875,0.474609 v 0.949219 l -0.59766,0.03516 v 0.646485 h 0.59766 v 1.816406 c 0,0.619125 0.35845,0.976562 0.9707,0.976562 0.24077,0 0.70055,-0.04924 0.95508,-0.138671 l -0.10938,-0.707032 h -0.43359 c -0.27517,0 -0.3711,-0.08922 -0.3711,-0.34375 v -1.603515 h 0.94141 v -0.681641 h -0.94141 v -0.949219 z m 6.78515,0 v 0.949219 l -0.59765,0.03516 v 0.646485 h 0.59765 v 1.816406 c 0,0.619125 0.35846,0.976562 0.9707,0.976562 0.24078,0 0.70055,-0.04924 0.95508,-0.138671 l -0.10937,-0.707032 h -0.4336 c -0.27516,0 -0.37109,-0.08922 -0.37109,-0.34375 v -1.603515 h 0.94141 v -0.681641 h -0.94141 V 65.833984 Z M 166.64062,66.6875 c -0.47466,0 -1.27423,0.07463 -1.76953,0.164062 l 0.0977,0.689454 c 0.54345,-0.0344 1.10637,-0.05664 1.42969,-0.05664 0.43338,0 0.55171,0.09745 0.55859,0.441406 v 0.150391 h -1.21094 c -0.64665,0 -1.03906,0.317874 -1.03906,0.861328 v 0.34375 c 0,0.632884 0.47453,0.976563 1.10742,0.976562 0.59849,0 1.01119,-0.317563 1.25196,-0.599609 l 0.10351,0.517578 h 0.80469 v -2.24414 c 0,-0.956205 -0.46034,-1.244141 -1.33399,-1.244141 z m 15.65235,0 c -0.47466,0 -1.27228,0.07463 -1.76758,0.164062 l 0.0957,0.689454 c 0.54346,-0.0344 1.10832,-0.05664 1.43164,-0.05664 0.43339,0 0.54976,0.09745 0.55665,0.441406 v 0.150391 h -1.21094 c -0.64664,0 -1.03907,0.317874 -1.03906,0.861328 v 0.34375 c 0,0.632884 0.47454,0.976563 1.10742,0.976562 0.59849,0 1.01118,-0.317563 1.25195,-0.599609 l 0.10352,0.517578 h 0.80468 v -2.24414 c 0,-0.956205 -0.46033,-1.244141 -1.33398,-1.244141 z m 3.70312,0 c -1.25201,0 -1.71289,0.475141 -1.71289,1.789062 0,1.307041 0.45409,1.781251 1.69922,1.78125 0.4609,0 0.94986,-0.06834 1.31446,-0.226562 l -0.0898,-0.660156 c -0.39211,0.05503 -0.82581,0.06055 -1.03906,0.06055 -0.61225,0 -0.81836,-0.205249 -0.81836,-0.955079 0,-0.749829 0.20611,-0.957031 0.81836,-0.957031 0.25453,0 0.59922,0.0068 0.9707,0.01367 l 0.10938,-0.632812 c -0.37148,-0.1651 -0.90113,-0.212891 -1.25196,-0.212891 z m -19.95507,2.001953 h 0.91601 v 0.474609 c -0.28893,0.220135 -0.61376,0.330079 -0.84765,0.330079 -0.27516,0 -0.39844,-0.110792 -0.39844,-0.351563 v -0.130859 c 0,-0.192617 0.0824,-0.315387 0.33008,-0.322266 z m 15.65234,0 h 0.91602 v 0.474609 c -0.28892,0.220135 -0.61182,0.330079 -0.84571,0.330079 -0.27516,0 -0.40039,-0.110792 -0.40039,-0.351563 v -0.130859 c 0,-0.192617 0.0824,-0.315387 0.33008,-0.322266 z"
         id="path4833"
         style="font-style:normal;font-variant:normal;font-weight:bold;font-stretch:normal;font-size:6.8791666px;font-family:'Exo 2';-inkscape-font-specification:'Exo 2, Bold';font-variant-ligatures:normal;font-variant-caps:normal;font-variant-numeric:normal;font-feature-settings:normal;text-align:center;writing-mode:lr-tb;text-anchor:middle;fill:#351c38;fill-opacity:1;stroke-width:0.39687496" />
    </g>
  </g>
</svg>
